<?xml version="1.0" encoding="UTF-8" standalone="no"?>
<!DOCTYPE svg PUBLIC "-//W3C//DTD SVG 1.1//EN" "http://www.w3.org/Graphics/SVG/1.1/DTD/svg11.dtd">
<!-- Created with Vectornator (http://vectornator.io/) -->
<svg height="100%" stroke-miterlimit="10" style="fill-rule:nonzero;clip-rule:evenodd;stroke-linecap:round;stroke-linejoin:round;" version="1.1" viewBox="0 0 437 393" width="100%" xml:space="preserve" xmlns="http://www.w3.org/2000/svg" xmlns:vectornator="http://vectornator.io" xmlns:xlink="http://www.w3.org/1999/xlink">
<defs>
<radialGradient cx="163.959" cy="181.19" gradientTransform="matrix(1 0 0 1 0 0)" gradientUnits="userSpaceOnUse" id="RadialGradient" r="64.5128">
<stop offset="0.823511" stop-color="#ffffff" stop-opacity="0.356309"/>
<stop offset="1" stop-color="#ffffff" stop-opacity="0"/>
</radialGradient>
<radialGradient cx="205.107" cy="278.067" gradientTransform="matrix(1 0 0 1 21.0677 -2.11703)" gradientUnits="userSpaceOnUse" id="RadialGradient_2" r="95.638">
<stop offset="0.82816" stop-color="#ffffff"/>
<stop offset="0.997483" stop-color="#ffffff" stop-opacity="0"/>
</radialGradient>
<radialGradient cx="204.61" cy="320.578" gradientTransform="matrix(1 0 0 1 21.9945 -3.49832)" gradientUnits="userSpaceOnUse" id="RadialGradient_3" r="105.45">
<stop offset="0.832687" stop-color="#ffffff"/>
<stop offset="0.997483" stop-color="#ffffff" stop-opacity="0"/>
</radialGradient>
<radialGradient cx="201.608" cy="92.7259" gradientTransform="matrix(1 0 0 1 6.83741 5.50216)" gradientUnits="userSpaceOnUse" id="RadialGradient_4" r="148.842">
<stop offset="0.932134" stop-color="#ffffff"/>
<stop offset="1" stop-color="#ffffff" stop-opacity="0"/>
</radialGradient>
</defs>
<clipPath id="ArtboardFrame">
<rect height="393" width="437" x="0" y="0"/>
</clipPath>
<g clip-path="url(#ArtboardFrame)" id="Untitled" vectornator:layerName="Untitled">
<path d="M246 393C163.667 393 81.8333 393 1.5e-05 393C8e-06 262 8e-06 131 0 3.8e-05C145.667 1.9e-05 291.333 1.9e-05 437 3.87468e-14C437 131 437 262 437 393C373.5 393 310 393 246 393M181.903 11.3115C165.279 13.2877 149.239 17.4447 133.632 23.5519C37.1796 61.2971-9.89812 176.011 32.3067 270.661C73.6319 363.337 176.932 406.074 271.569 369.646C355.259 337.432 404.818 245.342 385.519 157.902C364.686 63.5096 278.511 1.13961 181.903 11.3115Z" fill="#fefefe" fill-opacity="0" fill-rule="nonzero" opacity="1" stroke="none" vectornator:layerName="path"/>
<path d="M182.353 11.2475C278.511 1.13961 364.686 63.5096 385.519 157.902C404.818 245.342 355.259 337.432 271.569 369.646C176.932 406.074 73.6319 363.337 32.3067 270.661C-9.89812 176.011 37.1796 61.2971 133.632 23.5519C149.239 17.4447 165.279 13.2877 182.353 11.2475M215.557 222.56C216.348 222.357 217.138 221.98 217.93 221.978C235.078 221.942 252.227 221.858 269.372 222.09C270.989 222.112 273.293 223.814 274.055 225.345C277.163 231.594 279.711 238.119 282.667 244.448C283.374 245.959 284.812 248.189 285.999 248.244C293.551 248.59 301.128 248.42 309.359 248.42C308.387 246.095 307.867 244.722 307.25 243.395C287.963 201.9 268.696 160.396 249.28 118.962C248.376 117.03 246.159 114.499 244.519 114.473C242.916 114.448 240.634 116.98 239.734 118.898C220.289 160.318 200.993 201.809 181.685 243.295C181.013 244.738 180.519 246.264 179.662 248.473C186.753 248.473 193.19 248.269 199.605 248.555C203.076 248.711 204.651 247.249 205.876 244.265C208.782 237.186 211.959 230.218 215.557 222.56M204.183 115.343C201.034 122.5 198.059 129.743 194.607 136.75C193.791 138.407 191.387 140.314 189.685 140.341C172.873 140.606 156.053 140.588 139.24 140.358C137.625 140.336 135.314 138.707 134.564 137.206C131.37 130.813 128.717 124.151 125.683 117.674C125.048 116.317 123.674 114.361 122.577 114.318C115.048 114.023 107.502 114.163 99.4458 114.163C100.108 116.078 100.384 117.185 100.857 118.201C120.566 160.605 140.273 203.009 160.103 245.356C160.731 246.698 162.877 248.465 163.899 248.23C165.605 247.837 167.639 246.294 168.386 244.698C188.156 202.507 207.781 160.248 227.409 117.991C227.914 116.902 228.164 115.694 228.471 114.734C220.252 114.734 212.493 114.734 204.183 115.343" fill="#0943ae" fill-rule="nonzero" opacity="1" stroke="none" vectornator:layerName="path"/>
<path d="M215.292 222.883C211.959 230.218 208.782 237.186 205.876 244.265C204.651 247.249 203.076 248.711 199.605 248.556C193.19 248.269 186.753 248.474 179.662 248.474C180.519 246.264 181.013 244.738 181.685 243.295C200.993 201.809 220.289 160.318 239.734 118.898C240.634 116.98 242.916 114.448 244.518 114.473C246.159 114.499 248.376 117.03 249.28 118.962C268.696 160.396 287.963 201.9 307.25 243.395C307.867 244.722 308.387 246.095 309.359 248.42C301.128 248.42 293.551 248.59 285.999 248.244C284.812 248.189 283.374 245.959 282.667 244.448C279.711 238.119 277.163 231.594 274.055 225.345C273.293 223.814 270.989 222.112 269.372 222.09C252.227 221.858 235.078 221.942 217.93 221.978C217.138 221.98 216.348 222.357 215.292 222.883M224.845 200.995C225.988 201.701 227.115 202.987 228.276 203.018C235.43 203.208 242.59 203.114 249.748 203.114C254.313 203.115 258.877 203.114 264.343 203.114C257.51 187.679 251.116 173.234 244.086 157.351C237.32 172.619 231.214 186.397 224.845 200.995Z" fill="#f9fafc" fill-rule="nonzero" opacity="1" stroke="none" vectornator:layerName="path"/>
<path d="M204.458 115.039C212.493 114.734 220.252 114.734 228.471 114.734C228.164 115.694 227.914 116.902 227.409 117.991C207.781 160.248 188.156 202.507 168.386 244.698C167.639 246.294 165.605 247.836 163.899 248.23C162.877 248.465 160.731 246.698 160.103 245.356C140.273 203.009 120.566 160.605 100.857 118.201C100.384 117.185 100.108 116.078 99.4458 114.163C107.502 114.163 115.048 114.023 122.577 114.318C123.674 114.361 125.048 116.317 125.683 117.674C128.717 124.151 131.37 130.813 134.564 137.206C135.314 138.707 137.625 140.336 139.24 140.358C156.053 140.588 172.873 140.606 189.685 140.341C191.387 140.314 193.791 138.407 194.607 136.75C198.059 129.743 201.034 122.5 204.458 115.039M150.636 173.934C155.073 183.982 159.51 194.03 164.503 205.337C171.576 189.284 178.005 174.693 184.65 159.608C170.806 159.608 157.987 159.608 144.393 159.608C146.516 164.535 148.396 168.898 150.636 173.934Z" fill="url(#RadialGradient)" fill-rule="nonzero" opacity="1" stroke="none" vectornator:layerName="path"/>
<path d="M320.688 280.082C320.387 280.07 320.27 279.871 320.086 279.334C320.303 279.296 320.588 279.596 320.688 280.082Z" fill="#c5cddb" fill-rule="nonzero" opacity="1" stroke="none" vectornator:layerName="path"/>
<path d="M224.976 200.585C231.214 186.397 237.32 172.619 244.086 157.351C251.116 173.234 257.51 187.679 264.343 203.114C258.877 203.114 254.313 203.115 249.748 203.114C242.59 203.114 235.43 203.208 228.276 203.018C227.115 202.987 225.988 201.701 224.976 200.585Z" fill="#1048b1" fill-rule="nonzero" opacity="1" stroke="none" vectornator:layerName="path"/>
<path d="M150.456 173.598C148.396 168.898 146.516 164.535 144.393 159.608C157.987 159.608 170.806 159.608 184.65 159.608C178.005 174.693 171.576 189.284 164.503 205.337C159.51 194.03 155.073 183.982 150.456 173.598Z" fill="#144ab0" fill-rule="nonzero" opacity="1" stroke="none" vectornator:layerName="path"/>
<g fill="url(#RadialGradient_2)" opacity="1" stroke="#0049b8" stroke-linecap="butt" stroke-linejoin="miter" stroke-width="0" vectornator:layerName="tspan">
<path d="M153.013 284.961L147.574 272.017L142.203 284.961L153.013 284.961ZM132.725 297.032L132.725 296.183C133.934 296.045 134.841 295.586 135.445 294.806C136.049 294.026 137.086 291.907 138.555 288.449L148.354 265.385L149.272 265.385L160.976 292.029C161.756 293.804 162.38 294.901 162.846 295.322C163.313 295.743 164.097 296.03 165.199 296.183L165.199 297.032L153.242 297.032L153.242 296.183C154.619 296.06 155.506 295.911 155.904 295.735C156.302 295.559 156.501 295.127 156.501 294.439C156.501 294.209 156.424 293.804 156.271 293.222C156.118 292.641 155.904 292.029 155.629 291.386L153.678 286.865L141.377 286.865C140.153 289.941 139.423 291.819 139.186 292.499C138.948 293.18 138.83 293.72 138.83 294.117C138.83 294.913 139.151 295.464 139.794 295.77C140.192 295.953 140.941 296.091 142.043 296.183L142.043 297.032L132.725 297.032Z"/>
<path d="M166.185 296.275C167.593 296.152 168.526 295.904 168.985 295.529C169.444 295.154 169.674 294.355 169.674 293.131L169.674 282.78C169.674 281.266 169.532 280.183 169.249 279.533C168.966 278.883 168.45 278.558 167.7 278.558C167.547 278.558 167.344 278.577 167.092 278.615C166.839 278.653 166.576 278.703 166.3 278.764L166.3 278.007C167.172 277.701 168.067 277.387 168.985 277.066C169.903 276.745 170.538 276.515 170.89 276.378C171.655 276.087 172.443 275.758 173.254 275.391C173.361 275.391 173.426 275.429 173.449 275.506C173.472 275.582 173.483 275.743 173.483 275.987L173.483 279.751C174.462 278.39 175.407 277.326 176.317 276.561C177.228 275.796 178.173 275.414 179.152 275.414C179.932 275.414 180.567 275.647 181.056 276.114C181.546 276.58 181.791 277.166 181.791 277.869C181.791 278.497 181.603 279.024 181.229 279.453C180.854 279.881 180.383 280.095 179.817 280.095C179.236 280.095 178.651 279.828 178.062 279.292C177.473 278.757 177.01 278.489 176.673 278.489C176.138 278.489 175.48 278.921 174.7 279.786C173.919 280.65 173.529 281.541 173.529 282.459L173.529 292.809C173.529 294.125 173.835 295.039 174.447 295.552C175.059 296.064 176.077 296.305 177.499 296.275L177.499 297.032L166.185 297.032L166.185 296.275Z"/>
<path d="M193.587 275.873L193.587 277.525L188.905 277.525L188.859 290.744C188.859 291.907 188.959 292.786 189.158 293.383C189.525 294.439 190.244 294.966 191.315 294.966C191.866 294.966 192.344 294.836 192.749 294.576C193.155 294.316 193.617 293.903 194.138 293.337L194.734 293.842L194.229 294.53C193.434 295.601 192.592 296.359 191.705 296.802C190.818 297.246 189.961 297.468 189.135 297.468C187.329 297.468 186.105 296.665 185.463 295.058C185.111 294.186 184.935 292.978 184.935 291.432L184.935 277.525L182.433 277.525C182.357 277.479 182.3 277.433 182.261 277.387C182.223 277.341 182.204 277.28 182.204 277.204C182.204 277.051 182.238 276.932 182.307 276.848C182.376 276.764 182.594 276.569 182.961 276.263C184.017 275.391 184.778 274.683 185.245 274.14C185.711 273.597 186.809 272.163 188.538 269.837C188.737 269.837 188.855 269.852 188.894 269.883C188.932 269.914 188.951 270.028 188.951 270.227L188.951 275.873L193.587 275.873Z"/>
<path d="M198.544 267.404C198.544 266.747 198.773 266.181 199.232 265.706C199.691 265.232 200.257 264.995 200.931 264.995C201.588 264.995 202.151 265.228 202.617 265.695C203.084 266.161 203.317 266.731 203.317 267.404C203.317 268.062 203.084 268.625 202.617 269.091C202.151 269.558 201.588 269.791 200.931 269.791C200.257 269.791 199.691 269.558 199.232 269.091C198.773 268.625 198.544 268.062 198.544 267.404ZM195.606 296.389C197.243 296.236 198.276 295.957 198.704 295.552C199.133 295.146 199.347 294.049 199.347 292.258L199.347 281.312C199.347 280.317 199.278 279.629 199.14 279.246C198.911 278.619 198.429 278.305 197.695 278.305C197.526 278.305 197.362 278.321 197.201 278.351C197.041 278.382 196.578 278.504 195.813 278.718L195.813 278.007L196.8 277.686C199.477 276.814 201.344 276.156 202.399 275.712C202.828 275.529 203.103 275.437 203.225 275.437C203.256 275.544 203.271 275.659 203.271 275.781L203.271 292.258C203.271 294.003 203.482 295.097 203.902 295.54C204.323 295.984 205.276 296.267 206.76 296.389L206.76 297.032L195.606 297.032L195.606 296.389Z"/>
<path d="M208.664 296.389C210.286 296.313 211.353 296.011 211.866 295.483C212.378 294.955 212.635 293.842 212.635 292.144L212.635 277.41L208.71 277.41L208.71 275.873L212.635 275.873C212.635 273.455 212.964 271.413 213.621 269.745C214.876 266.548 217.179 264.949 220.529 264.949C221.875 264.949 223.08 265.217 224.144 265.752C225.207 266.288 225.739 267.007 225.739 267.909C225.739 268.414 225.555 268.866 225.188 269.263C224.821 269.661 224.377 269.86 223.857 269.86C223.413 269.86 223.031 269.726 222.709 269.458C222.388 269.191 222.006 268.72 221.562 268.047L221.172 267.45C220.958 267.129 220.705 266.858 220.414 266.636C220.124 266.414 219.718 266.303 219.198 266.303C218.035 266.303 217.247 266.877 216.834 268.024C216.605 268.636 216.49 269.439 216.49 270.434L216.49 275.873L222.25 275.873L222.25 277.41L216.536 277.41L216.536 292.144C216.536 293.873 216.769 294.978 217.236 295.46C217.703 295.942 218.923 296.252 220.896 296.389L220.896 297.032L208.664 297.032L208.664 296.389Z"/>
<path d="M236.869 284.318C235.11 284.899 233.656 285.542 232.509 286.246C230.306 287.607 229.204 289.153 229.204 290.882C229.204 292.274 229.663 293.299 230.581 293.957C231.178 294.385 231.843 294.599 232.577 294.599C233.587 294.599 234.555 294.316 235.481 293.75C236.406 293.184 236.869 292.465 236.869 291.593L236.869 284.318ZM225.119 292.465C225.119 290.247 226.228 288.395 228.447 286.911C229.854 285.993 232.662 284.746 236.869 283.171L236.869 281.22C236.869 279.659 236.716 278.573 236.41 277.961C235.89 276.936 234.811 276.424 233.174 276.424C232.394 276.424 231.652 276.622 230.948 277.02C230.244 277.433 229.892 277.999 229.892 278.718C229.892 278.902 229.931 279.212 230.007 279.648C230.084 280.084 230.122 280.363 230.122 280.486C230.122 281.342 229.839 281.939 229.273 282.276C228.952 282.474 228.569 282.574 228.125 282.574C227.437 282.574 226.909 282.348 226.542 281.897C226.175 281.446 225.991 280.945 225.991 280.394C225.991 279.323 226.653 278.202 227.976 277.032C229.3 275.861 231.239 275.276 233.794 275.276C236.762 275.276 238.774 276.24 239.829 278.168C240.396 279.223 240.679 280.761 240.679 282.78L240.679 291.983C240.679 292.87 240.74 293.482 240.862 293.819C241.061 294.416 241.474 294.714 242.101 294.714C242.453 294.714 242.744 294.66 242.973 294.553C243.203 294.446 243.601 294.186 244.167 293.773L244.167 294.966C243.677 295.563 243.149 296.053 242.583 296.435C241.727 297.017 240.854 297.307 239.967 297.307C238.927 297.307 238.173 296.971 237.707 296.298C237.24 295.624 236.984 294.821 236.938 293.888C235.775 294.898 234.781 295.647 233.954 296.137C232.562 296.963 231.239 297.376 229.984 297.376C228.668 297.376 227.529 296.913 226.565 295.988C225.601 295.062 225.119 293.888 225.119 292.465Z"/>
<path d="M255.94 275.391C257.852 275.391 259.501 275.884 260.885 276.871C262.27 277.858 262.962 278.94 262.962 280.118C262.962 280.623 262.786 281.094 262.434 281.53C262.083 281.966 261.539 282.184 260.805 282.184C260.27 282.184 259.799 282 259.394 281.633C258.988 281.266 258.694 280.73 258.51 280.027L258.235 278.925C258.036 278.114 257.692 277.54 257.202 277.204C256.697 276.883 256.032 276.722 255.205 276.722C253.461 276.722 251.989 277.483 250.788 279.005C249.587 280.528 248.986 282.551 248.986 285.075C248.986 287.386 249.648 289.459 250.971 291.295C252.295 293.131 254.081 294.049 256.33 294.049C257.921 294.049 259.336 293.528 260.576 292.488C261.279 291.891 262.075 290.943 262.962 289.642L263.605 290.032C262.733 291.868 261.815 293.322 260.851 294.393C259 296.443 256.858 297.468 254.425 297.468C252.038 297.468 249.927 296.527 248.091 294.645C246.255 292.763 245.337 290.208 245.337 286.98C245.337 283.813 246.339 281.09 248.344 278.81C250.348 276.531 252.88 275.391 255.94 275.391Z"/>
<path d="M277.076 275.873L277.076 277.525L272.394 277.525L272.348 290.744C272.348 291.907 272.448 292.786 272.647 293.383C273.014 294.439 273.733 294.966 274.804 294.966C275.355 294.966 275.833 294.836 276.238 294.576C276.644 294.316 277.107 293.903 277.627 293.337L278.223 293.842L277.719 294.53C276.923 295.601 276.082 296.359 275.194 296.802C274.307 297.246 273.45 297.468 272.624 297.468C270.819 297.468 269.595 296.665 268.952 295.058C268.6 294.186 268.424 292.978 268.424 291.432L268.424 277.525L265.923 277.525C265.846 277.479 265.789 277.433 265.751 277.387C265.712 277.341 265.693 277.28 265.693 277.204C265.693 277.051 265.728 276.932 265.796 276.848C265.865 276.764 266.083 276.569 266.451 276.263C267.506 275.391 268.267 274.683 268.734 274.14C269.201 273.597 270.298 272.163 272.027 269.837C272.226 269.837 272.345 269.852 272.383 269.883C272.421 269.914 272.44 270.028 272.44 270.227L272.44 275.873L277.076 275.873Z"/>
</g>
<g fill="url(#RadialGradient_3)" opacity="1" stroke="#0049b8" stroke-linecap="butt" stroke-linejoin="miter" stroke-width="0" vectornator:layerName="tspan">
<path d="M142.738 325.605L137.53 313.212L132.389 325.605L142.738 325.605ZM123.314 337.162L123.314 336.349C124.471 336.217 125.339 335.778 125.918 335.031C126.496 334.284 127.489 332.255 128.895 328.944L138.277 306.862L139.156 306.862L150.362 332.372C151.109 334.071 151.706 335.122 152.153 335.525C152.6 335.928 153.351 336.203 154.405 336.349L154.405 337.162L142.958 337.162L142.958 336.349C144.276 336.232 145.126 336.089 145.506 335.921C145.887 335.752 146.078 335.339 146.078 334.679C146.078 334.46 146.004 334.071 145.858 333.515C145.712 332.958 145.506 332.372 145.243 331.757L143.375 327.428L131.598 327.428C130.426 330.373 129.726 332.171 129.499 332.823C129.272 333.474 129.159 333.991 129.159 334.372C129.159 335.133 129.466 335.661 130.082 335.954C130.462 336.13 131.18 336.261 132.235 336.349L132.235 337.162L123.314 337.162Z"/>
<path d="M155.965 336.547C157.005 336.415 157.734 336.155 158.152 335.767C158.569 335.379 158.778 334.511 158.778 333.163L158.778 322.023C158.778 321.086 158.69 320.426 158.514 320.046C158.236 319.489 157.665 319.211 156.8 319.211C156.669 319.211 156.533 319.218 156.394 319.233C156.255 319.247 156.083 319.269 155.878 319.298L155.878 318.529C156.478 318.354 157.899 317.9 160.14 317.167L162.206 316.486C162.308 316.486 162.37 316.523 162.392 316.596C162.414 316.669 162.425 316.772 162.425 316.903L162.425 320.133C163.773 318.874 164.828 318.009 165.589 317.541C166.732 316.823 167.919 316.464 169.149 316.464C170.145 316.464 171.053 316.75 171.874 317.321C173.456 318.434 174.247 320.419 174.247 323.276L174.247 333.537C174.247 334.591 174.459 335.353 174.884 335.822C175.309 336.291 176.019 336.532 177.015 336.547L177.015 337.162L167.633 337.162L167.633 336.547C168.702 336.401 169.449 336.104 169.874 335.657C170.299 335.21 170.511 334.24 170.511 332.746L170.511 323.363C170.511 322.104 170.277 321.06 169.808 320.232C169.339 319.405 168.475 318.991 167.215 318.991C166.351 318.991 165.472 319.284 164.579 319.87C164.081 320.207 163.436 320.763 162.645 321.54L162.645 333.844C162.645 334.899 162.879 335.606 163.348 335.965C163.817 336.324 164.557 336.518 165.567 336.547L165.567 337.162L155.965 337.162L155.965 336.547Z"/>
<path d="M190.55 324.989C188.866 325.546 187.474 326.161 186.376 326.835C184.266 328.139 183.212 329.618 183.212 331.274C183.212 332.607 183.651 333.588 184.53 334.218C185.101 334.628 185.738 334.833 186.441 334.833C187.408 334.833 188.335 334.562 189.221 334.02C190.107 333.478 190.55 332.79 190.55 331.955L190.55 324.989ZM179.3 332.79C179.3 330.666 180.362 328.893 182.486 327.472C183.834 326.593 186.522 325.4 190.55 323.891L190.55 322.023C190.55 320.529 190.404 319.489 190.111 318.903C189.613 317.922 188.58 317.431 187.013 317.431C186.266 317.431 185.555 317.621 184.881 318.002C184.208 318.398 183.871 318.94 183.871 319.628C183.871 319.804 183.907 320.1 183.981 320.518C184.054 320.935 184.09 321.203 184.09 321.32C184.09 322.14 183.819 322.712 183.277 323.034C182.97 323.224 182.604 323.319 182.179 323.319C181.52 323.319 181.014 323.103 180.663 322.671C180.311 322.239 180.135 321.759 180.135 321.232C180.135 320.207 180.769 319.134 182.036 318.013C183.303 316.892 185.16 316.332 187.606 316.332C190.448 316.332 192.374 317.255 193.385 319.101C193.927 320.111 194.198 321.584 194.198 323.517L194.198 332.328C194.198 333.178 194.256 333.764 194.374 334.086C194.564 334.657 194.96 334.943 195.56 334.943C195.897 334.943 196.175 334.892 196.395 334.789C196.615 334.687 196.996 334.438 197.538 334.042L197.538 335.185C197.069 335.756 196.564 336.225 196.022 336.591C195.201 337.148 194.366 337.426 193.517 337.426C192.521 337.426 191.799 337.104 191.352 336.459C190.906 335.815 190.66 335.046 190.616 334.152C189.503 335.119 188.551 335.837 187.76 336.305C186.427 337.096 185.16 337.492 183.959 337.492C182.699 337.492 181.608 337.049 180.685 336.162C179.762 335.276 179.3 334.152 179.3 332.79Z"/>
<path d="M198.548 336.547C199.911 336.415 200.834 336.141 201.317 335.723C201.8 335.306 202.042 334.489 202.042 333.273L202.042 311.806C202.042 310.839 201.962 310.172 201.8 309.806C201.507 309.191 200.914 308.883 200.021 308.883C199.816 308.883 199.592 308.905 199.35 308.949C199.109 308.993 198.805 309.059 198.439 309.147L198.439 308.422C200.416 307.895 202.796 307.192 205.58 306.313C205.682 306.313 205.744 306.357 205.766 306.444C205.788 306.532 205.799 306.723 205.799 307.016L205.799 333.361C205.799 334.635 206.019 335.459 206.459 335.833C206.898 336.206 207.806 336.444 209.183 336.547L209.183 337.162L198.548 337.162L198.548 336.547Z"/>
<path d="M210.743 316.969L220.016 316.969L220.016 317.651C219.283 317.665 218.741 317.731 218.39 317.848C217.716 318.039 217.379 318.412 217.379 318.969C217.379 319.174 217.416 319.383 217.489 319.595C217.562 319.808 217.694 320.126 217.884 320.551L223.026 331.955L227.157 320.463C227.201 320.346 227.27 320.082 227.366 319.672C227.461 319.262 227.508 318.984 227.508 318.837C227.508 318.456 227.377 318.178 227.113 318.002C226.849 317.826 226.512 317.724 226.102 317.694L225.421 317.651L225.421 316.969L231.463 316.969L231.463 317.651C230.863 317.724 230.412 317.929 230.112 318.266C229.812 318.603 229.552 319.071 229.332 319.672L222.411 337.997C221.21 341.161 220.06 343.454 218.961 344.875C217.862 346.296 216.471 347.006 214.786 347.006C213.966 347.006 213.197 346.801 212.479 346.391C211.761 345.981 211.402 345.329 211.402 344.435C211.402 343.849 211.618 343.37 212.051 342.996C212.483 342.622 213.028 342.436 213.688 342.436C214.068 342.436 214.636 342.575 215.39 342.853C216.145 343.131 216.683 343.271 217.005 343.271C217.826 343.271 218.69 342.318 219.598 340.414C220.506 338.51 220.961 337.235 220.961 336.591C220.961 336.459 220.939 336.298 220.895 336.108C220.851 335.917 220.799 335.749 220.741 335.602L213.71 320.397C213.212 319.313 212.776 318.599 212.402 318.255C212.029 317.911 211.476 317.687 210.743 317.585L210.743 316.969Z"/>
<path d="M250.843 316.969L250.843 317.497L238.649 335.778L244.867 335.778C247.02 335.778 248.382 335.503 248.954 334.954C249.525 334.405 250.089 333.061 250.646 330.922L251.415 331.076L250.799 337.162L233.771 337.162L233.771 336.657L245.79 318.31L239.901 318.31C238.319 318.31 237.286 318.581 236.803 319.123C236.319 319.665 235.983 320.719 235.792 322.287L235.023 322.287L235.111 316.969L250.843 316.969Z"/>
<path d="M262.906 316.552C264.972 316.552 266.781 317.266 268.334 318.694C269.886 320.122 270.663 322.148 270.663 324.77L256.71 324.77C256.857 328.168 257.626 330.644 259.017 332.196C260.409 333.749 262.057 334.526 263.961 334.526C265.499 334.526 266.795 334.123 267.85 333.317C268.905 332.511 269.879 331.369 270.773 329.889L271.542 330.153C270.941 332.013 269.817 333.735 268.169 335.317C266.521 336.899 264.503 337.69 262.115 337.69C259.361 337.69 257.234 336.65 255.732 334.569C254.231 332.489 253.48 330.094 253.48 327.384C253.48 324.44 254.352 321.899 256.095 319.76C257.838 317.621 260.108 316.552 262.906 316.552ZM261.632 318.156C259.962 318.156 258.688 318.896 257.809 320.375C257.34 321.166 257.003 322.162 256.798 323.363L266.07 323.363C265.909 321.899 265.631 320.807 265.235 320.089C264.518 318.8 263.316 318.156 261.632 318.156Z"/>
<path d="M272.772 336.437C274.12 336.32 275.013 336.082 275.453 335.723C275.892 335.364 276.112 334.599 276.112 333.427L276.112 323.517C276.112 322.067 275.976 321.031 275.705 320.408C275.434 319.786 274.94 319.474 274.222 319.474C274.076 319.474 273.882 319.493 273.64 319.529C273.398 319.566 273.146 319.613 272.882 319.672L272.882 318.947C273.717 318.654 274.574 318.354 275.453 318.046C276.332 317.738 276.94 317.519 277.276 317.387C278.009 317.109 278.763 316.794 279.54 316.442C279.642 316.442 279.704 316.479 279.726 316.552C279.748 316.625 279.759 316.779 279.759 317.013L279.759 320.617C280.697 319.313 281.601 318.295 282.473 317.563C283.345 316.83 284.249 316.464 285.187 316.464C285.934 316.464 286.542 316.687 287.01 317.134C287.479 317.581 287.713 318.141 287.713 318.815C287.713 319.416 287.534 319.921 287.175 320.331C286.816 320.741 286.366 320.946 285.824 320.946C285.267 320.946 284.707 320.69 284.143 320.177C283.579 319.665 283.136 319.408 282.814 319.408C282.301 319.408 281.671 319.822 280.924 320.65C280.177 321.477 279.803 322.331 279.803 323.21L279.803 333.119C279.803 334.379 280.096 335.254 280.682 335.745C281.268 336.236 282.242 336.466 283.605 336.437L283.605 337.162L272.772 337.162L272.772 336.437Z"/>
</g>
<g fill="url(#RadialGradient_4)" opacity="1" stroke="none">
<path d="M68.383 79.1541C68.383 80.1941 68.5997 81.0695 69.033 81.7801C69.4663 82.4908 70.021 83.0888 70.697 83.5741C71.373 84.0595 72.1183 84.4841 72.933 84.8481C73.7477 85.2121 74.5363 85.5675 75.299 85.9141C76.6163 86.5381 77.925 87.1968 79.225 87.8901C80.525 88.5835 81.695 89.3895 82.735 90.3081C83.775 91.2268 84.6157 92.3188 85.257 93.5841C85.8983 94.8495 86.219 96.3835 86.219 98.1861C86.219 99.9888 85.8463 101.505 85.101 102.736C84.3557 103.967 83.385 104.972 82.189 105.752C80.993 106.532 79.6497 107.095 78.159 107.442C76.6683 107.789 75.1777 107.962 73.687 107.962C72.7163 107.962 71.6243 107.815 70.411 107.52C69.1977 107.225 68.0883 106.783 67.083 106.194C66.9097 106.125 66.745 106.055 66.589 105.986C66.433 105.917 66.2337 105.882 65.991 105.882C65.7483 105.882 65.4883 105.986 65.211 106.194C64.9337 106.402 64.691 106.766 64.483 107.286C64.379 107.494 64.2403 107.633 64.067 107.702C63.8937 107.771 63.7117 107.797 63.521 107.78C63.3303 107.763 63.1743 107.702 63.053 107.598C62.9317 107.494 62.871 107.373 62.871 107.234C62.975 106.471 63.0703 105.648 63.157 104.764C63.2437 103.88 63.287 102.987 63.287 102.086C63.287 101.185 63.261 100.283 63.209 99.3821C63.157 98.4808 63.0617 97.5448 62.923 96.5741C62.8883 96.3661 62.9577 96.1928 63.131 96.0541C63.3043 95.9155 63.495 95.8375 63.703 95.8201C63.911 95.8028 64.1103 95.8375 64.301 95.9241C64.4917 96.0108 64.6043 96.1581 64.639 96.3661C64.847 97.7875 65.2283 99.0788 65.783 100.24C66.3377 101.401 67.031 102.389 67.863 103.204C68.695 104.019 69.6397 104.651 70.697 105.102C71.7543 105.553 72.907 105.778 74.155 105.778C75.091 105.778 75.9837 105.648 76.833 105.388C77.6823 105.128 78.4363 104.747 79.095 104.244C79.7537 103.741 80.2737 103.126 80.655 102.398C81.0363 101.67 81.227 100.821 81.227 99.8501C81.227 98.6021 80.9583 97.5101 80.421 96.5741C79.8837 95.6381 79.2163 94.8321 78.419 94.1561C77.6217 93.4801 76.7377 92.8908 75.767 92.3881C74.7963 91.8855 73.8777 91.4261 73.011 91.0101C71.867 90.4901 70.723 89.9528 69.579 89.3981C68.435 88.8435 67.4123 88.1761 66.511 87.3961C65.6097 86.6161 64.8817 85.6801 64.327 84.5881C63.7723 83.4961 63.495 82.1355 63.495 80.5061C63.495 78.8421 63.833 77.4468 64.509 76.3201C65.185 75.1935 66.0777 74.2835 67.187 73.5901C68.2963 72.8968 69.5617 72.3941 70.983 72.0821C72.4043 71.7701 73.8777 71.6141 75.403 71.6141C76.3737 71.6141 77.197 71.6748 77.873 71.7961C78.549 71.9175 79.303 72.1168 80.135 72.3941C80.5857 72.5328 80.9583 72.6455 81.253 72.7321C81.5477 72.8188 81.8337 72.8621 82.111 72.8621C82.527 72.8621 82.8217 72.6888 82.995 72.3421C83.0643 72.2035 83.1943 72.1081 83.385 72.0561C83.5757 72.0041 83.7577 71.9868 83.931 72.0041C84.1043 72.0215 84.2603 72.0648 84.399 72.1341C84.5377 72.2035 84.5897 72.3075 84.555 72.4461C84.3817 73.0701 84.269 73.6941 84.217 74.3181C84.165 74.9421 84.139 75.6008 84.139 76.2941C84.139 77.1955 84.191 78.0101 84.295 78.7381C84.399 79.4661 84.4857 80.3328 84.555 81.3381C84.555 81.4421 84.4857 81.5375 84.347 81.6241C84.2083 81.7108 84.0437 81.7628 83.853 81.7801C83.6623 81.7975 83.4803 81.7715 83.307 81.7021C83.1337 81.6328 83.0297 81.5115 82.995 81.3381C82.6483 79.8128 82.267 78.5561 81.851 77.5681C81.435 76.5801 80.915 75.8088 80.291 75.2541C79.667 74.6995 78.913 74.3181 78.029 74.1101C77.145 73.9021 76.079 73.7981 74.831 73.7981C73.9643 73.7981 73.141 73.9108 72.361 74.1361C71.581 74.3615 70.8963 74.6995 70.307 75.1501C69.7177 75.6008 69.2497 76.1641 68.903 76.8401C68.5563 77.5161 68.383 78.2875 68.383 79.1541Z"/>
<path d="M107.851 107.754C102.408 107.754 98.1443 106.211 95.059 103.126C91.9737 100.041 90.431 95.4301 90.431 89.2941C90.431 86.6595 90.8643 84.2328 91.731 82.0141C92.5977 79.7955 93.8023 77.8888 95.345 76.2941C96.8877 74.6995 98.7337 73.4601 100.883 72.5761C103.032 71.6921 105.407 71.2501 108.007 71.2501C110.538 71.2501 112.86 71.6748 114.975 72.5241C117.09 73.3735 118.91 74.5781 120.435 76.1381C121.96 77.6981 123.148 79.5788 123.997 81.7801C124.846 83.9815 125.271 86.4341 125.271 89.1381C125.271 92.1541 124.812 94.8148 123.893 97.1201C122.974 99.4255 121.726 101.367 120.149 102.944C118.572 104.521 116.726 105.717 114.611 106.532C112.496 107.347 110.243 107.754 107.851 107.754ZM108.059 105.57C109.758 105.57 111.257 105.119 112.557 104.218C113.857 103.317 114.958 102.129 115.859 100.656C116.76 99.1828 117.445 97.4841 117.913 95.5601C118.381 93.6361 118.615 91.6341 118.615 89.5541C118.615 87.5435 118.433 85.5675 118.069 83.6261C117.705 81.6848 117.107 79.9601 116.275 78.4521C115.443 76.9441 114.334 75.7308 112.947 74.8121C111.56 73.8935 109.862 73.4341 107.851 73.4341C105.979 73.4341 104.358 73.9021 102.989 74.8381C101.62 75.7741 100.502 76.9961 99.635 78.5041C98.7683 80.0121 98.127 81.7281 97.711 83.6521C97.295 85.5761 97.087 87.5261 97.087 89.5021C97.087 91.5821 97.2603 93.5928 97.607 95.5341C97.9537 97.4755 98.543 99.1828 99.375 100.656C100.207 102.129 101.325 103.317 102.729 104.218C104.133 105.119 105.91 105.57 108.059 105.57Z"/>
<path d="M154.443 72.2901C154.72 72.2901 154.989 72.3248 155.249 72.3941C155.509 72.4635 155.604 72.7408 155.535 73.2261C155.431 74.2315 155.396 75.3928 155.431 76.7101C155.466 78.0275 155.518 79.2408 155.587 80.3501C155.587 80.4888 155.509 80.6015 155.353 80.6881C155.197 80.7748 155.015 80.8268 154.807 80.8441C154.599 80.8615 154.4 80.8268 154.209 80.7401C154.018 80.6535 153.906 80.5235 153.871 80.3501C153.628 78.9981 153.386 77.9408 153.143 77.1781C152.9 76.4155 152.562 75.8348 152.129 75.4361C151.696 75.0375 151.106 74.7861 150.361 74.6821C149.616 74.5781 148.636 74.5088 147.423 74.4741L144.303 74.4741C143.402 74.4741 142.682 74.4915 142.145 74.5261C141.608 74.5608 141.183 74.6908 140.871 74.9161C140.559 75.1415 140.351 75.4968 140.247 75.9821C140.143 76.4675 140.091 77.1435 140.091 78.0101L140.091 87.1101C140.091 87.5955 140.178 87.8988 140.351 88.0201C140.524 88.1415 140.698 88.2021 140.871 88.2021C142.466 88.2021 143.722 88.1328 144.641 87.9941C145.56 87.8555 146.253 87.6041 146.721 87.2401C147.189 86.8761 147.501 86.3995 147.657 85.8101C147.813 85.2208 147.943 84.4581 148.047 83.5221C148.082 83.3141 148.186 83.1581 148.359 83.0541C148.532 82.9501 148.723 82.8981 148.931 82.8981C149.139 82.8981 149.33 82.9501 149.503 83.0541C149.676 83.1581 149.763 83.3141 149.763 83.5221C149.763 84.0768 149.746 84.5708 149.711 85.0041C149.676 85.4375 149.642 85.8708 149.607 86.3041C149.572 86.7375 149.538 87.1881 149.503 87.6561C149.468 88.1241 149.451 88.6701 149.451 89.2941C149.451 90.3341 149.503 91.2788 149.607 92.1281C149.711 92.9775 149.763 94.0088 149.763 95.2221C149.763 95.3955 149.676 95.5255 149.503 95.6121C149.33 95.6988 149.139 95.7335 148.931 95.7161C148.723 95.6988 148.532 95.6468 148.359 95.5601C148.186 95.4735 148.082 95.3261 148.047 95.1181C147.943 94.1128 147.813 93.2981 147.657 92.6741C147.501 92.0501 147.189 91.5735 146.721 91.2441C146.253 90.9148 145.56 90.6895 144.641 90.5681C143.722 90.4468 142.466 90.3861 140.871 90.3861C140.698 90.3861 140.524 90.4468 140.351 90.5681C140.178 90.6895 140.091 90.9408 140.091 91.3221L140.091 100.058C140.091 101.237 140.186 102.181 140.377 102.892C140.568 103.603 140.897 104.157 141.365 104.556C141.833 104.955 142.448 105.232 143.211 105.388C143.974 105.544 144.927 105.674 146.071 105.778C146.314 105.778 146.487 105.873 146.591 106.064C146.695 106.255 146.747 106.471 146.747 106.714C146.747 106.922 146.686 107.113 146.565 107.286C146.444 107.459 146.262 107.546 146.019 107.546C144.147 107.546 142.544 107.477 141.209 107.338C139.874 107.199 138.583 107.13 137.335 107.13C136.018 107.13 134.718 107.199 133.435 107.338C132.152 107.477 130.904 107.546 129.691 107.546C129.483 107.546 129.327 107.459 129.223 107.286C129.119 107.113 129.058 106.922 129.041 106.714C129.024 106.506 129.067 106.307 129.171 106.116C129.275 105.925 129.448 105.813 129.691 105.778C130.662 105.674 131.459 105.535 132.083 105.362C132.707 105.189 133.192 104.911 133.539 104.53C133.886 104.149 134.12 103.646 134.241 103.022C134.362 102.398 134.423 101.566 134.423 100.526L134.423 80.9741C134.423 80.2115 134.397 79.4661 134.345 78.7381C134.293 78.0101 134.18 77.3341 134.007 76.7101C133.834 76.0861 133.565 75.5488 133.201 75.0981C132.837 74.6475 132.343 74.3355 131.719 74.1621C131.338 74.0581 130.939 73.9715 130.523 73.9021C130.107 73.8328 129.708 73.7808 129.327 73.7461C129.119 73.7461 128.963 73.6595 128.859 73.4861C128.755 73.3128 128.703 73.1221 128.703 72.9141C128.703 72.7061 128.755 72.5155 128.859 72.3421C128.963 72.1688 129.119 72.0821 129.327 72.0821C130.506 72.0821 131.563 72.1168 132.499 72.1861C133.435 72.2555 134.527 72.2901 135.775 72.2901L154.443 72.2901Z"/>
<path d="M175.971 100.474C175.971 101.618 176.023 102.511 176.127 103.152C176.231 103.793 176.465 104.287 176.829 104.634C177.193 104.981 177.704 105.232 178.363 105.388C179.022 105.544 179.906 105.674 181.015 105.778C181.223 105.813 181.388 105.925 181.509 106.116C181.63 106.307 181.691 106.506 181.691 106.714C181.691 106.922 181.63 107.113 181.509 107.286C181.388 107.459 181.206 107.546 180.963 107.546C179.576 107.546 178.25 107.477 176.985 107.338C175.72 107.199 174.463 107.13 173.215 107.13C171.898 107.13 170.537 107.199 169.133 107.338C167.729 107.477 166.455 107.546 165.311 107.546C165.103 107.546 164.947 107.459 164.843 107.286C164.739 107.113 164.687 106.922 164.687 106.714C164.687 106.506 164.739 106.307 164.843 106.116C164.947 105.925 165.103 105.813 165.311 105.778C166.386 105.674 167.244 105.544 167.885 105.388C168.526 105.232 169.029 104.981 169.393 104.634C169.757 104.287 170 103.793 170.121 103.152C170.242 102.511 170.303 101.618 170.303 100.474L170.303 77.3861C170.303 76.1035 169.982 75.2975 169.341 74.9681C168.7 74.6388 167.616 74.4741 166.091 74.4741C164.808 74.4741 163.751 74.5695 162.919 74.7601C162.087 74.9508 161.402 75.2975 160.865 75.8001C160.328 76.3028 159.894 76.9875 159.565 77.8541C159.236 78.7208 158.932 79.8475 158.655 81.2341C158.62 81.4421 158.508 81.5808 158.317 81.6501C158.126 81.7195 157.936 81.7455 157.745 81.7281C157.554 81.7108 157.381 81.6501 157.225 81.5461C157.069 81.4421 156.991 81.3208 156.991 81.1821C157.13 79.8995 157.208 78.5908 157.225 77.2561C157.242 75.9215 157.164 74.5955 156.991 73.2781C156.991 72.8968 157.234 72.6368 157.719 72.4981C158.204 72.3595 158.742 72.2901 159.331 72.2901L187.151 72.2901C187.81 72.2901 188.356 72.3508 188.789 72.4721C189.222 72.5935 189.439 72.8448 189.439 73.2261C189.37 73.6421 189.309 74.1535 189.257 74.7601C189.205 75.3668 189.179 76.0341 189.179 76.7621C189.179 77.4901 189.205 78.2355 189.257 78.9981C189.309 79.7608 189.37 80.4888 189.439 81.1821C189.439 81.3208 189.352 81.4508 189.179 81.5721C189.006 81.6935 188.815 81.7628 188.607 81.7801C188.399 81.7975 188.2 81.7715 188.009 81.7021C187.818 81.6328 187.706 81.4941 187.671 81.2861C187.463 79.8995 187.186 78.7641 186.839 77.8801C186.492 76.9961 186.033 76.3028 185.461 75.8001C184.889 75.2975 184.187 74.9508 183.355 74.7601C182.523 74.5695 181.535 74.4741 180.391 74.4741C178.831 74.4741 177.704 74.6388 177.011 74.9681C176.318 75.2975 175.971 76.1035 175.971 77.3861L175.971 100.474Z"/>
<path d="M214.763 83.4701C214.694 83.2275 214.555 83.1148 214.347 83.1321C214.139 83.1495 214 83.2795 213.931 83.5221L206.911 107.078C206.807 107.355 206.642 107.555 206.417 107.676C206.192 107.797 205.949 107.849 205.689 107.832C205.429 107.815 205.195 107.745 204.987 107.624C204.779 107.503 204.64 107.355 204.571 107.182C203.011 102.641 201.468 98.1601 199.943 93.7401C198.418 89.3201 196.927 84.6315 195.471 79.6741C195.367 79.3621 195.237 79.0068 195.081 78.6081C194.925 78.2095 194.76 77.8021 194.587 77.3861C194.414 76.9701 194.223 76.5715 194.015 76.1901C193.807 75.8088 193.616 75.4968 193.443 75.2541C193.027 74.6648 192.524 74.3008 191.935 74.1621C191.346 74.0235 190.583 73.9195 189.647 73.8501C189.474 73.8501 189.335 73.7548 189.231 73.5641C189.127 73.3735 189.075 73.1741 189.075 72.9661C189.075 72.7581 189.118 72.5675 189.205 72.3941C189.292 72.2208 189.439 72.1341 189.647 72.1341C191.034 72.1341 192.29 72.1948 193.417 72.3161C194.544 72.4375 195.731 72.4981 196.979 72.4981C198.296 72.4981 199.666 72.4375 201.087 72.3161C202.508 72.1948 203.947 72.1341 205.403 72.1341C205.611 72.1341 205.758 72.2208 205.845 72.3941C205.932 72.5675 205.966 72.7581 205.949 72.9661C205.932 73.1741 205.871 73.3735 205.767 73.5641C205.663 73.7548 205.524 73.8501 205.351 73.8501C204.831 73.8848 204.311 73.9108 203.791 73.9281C203.271 73.9455 202.786 74.0235 202.335 74.1621C201.884 74.3008 201.52 74.5261 201.243 74.8381C200.966 75.1501 200.827 75.6008 200.827 76.1901C200.827 76.5368 200.905 77.1261 201.061 77.9581C201.217 78.7901 201.512 80.0381 201.945 81.7021C202.378 83.3661 202.976 85.5241 203.739 88.1761C204.502 90.8281 205.49 94.1475 206.703 98.1341C206.772 98.3421 206.928 98.4548 207.171 98.4721C207.414 98.4895 207.57 98.3768 207.639 98.1341L214.919 72.1341C214.954 71.9608 215.066 71.8308 215.257 71.7441C215.448 71.6575 215.647 71.6141 215.855 71.6141C216.063 71.6141 216.262 71.6575 216.453 71.7441C216.644 71.8308 216.756 71.9608 216.791 72.1341L225.267 98.2381C225.336 98.5155 225.492 98.6455 225.735 98.6281C225.978 98.6108 226.134 98.5155 226.203 98.3421L229.063 89.3461C229.271 88.6875 229.522 87.7861 229.817 86.6421C230.112 85.4981 230.389 84.3195 230.649 83.1061C230.909 81.8928 231.126 80.7401 231.299 79.6481C231.472 78.5561 231.542 77.6981 231.507 77.0741C231.438 75.7915 231.134 74.9421 230.597 74.5261C230.06 74.1101 229.184 73.8848 227.971 73.8501C227.728 73.8501 227.555 73.7635 227.451 73.5901C227.347 73.4168 227.295 73.2261 227.295 73.0181C227.295 72.7755 227.356 72.5675 227.477 72.3941C227.598 72.2208 227.763 72.1341 227.971 72.1341C229.08 72.1341 230.094 72.1948 231.013 72.3161C231.932 72.4375 232.894 72.4981 233.899 72.4981C234.87 72.4981 235.702 72.4375 236.395 72.3161C237.088 72.1948 237.972 72.1341 239.047 72.1341C239.22 72.1341 239.368 72.2208 239.489 72.3941C239.61 72.5675 239.671 72.7581 239.671 72.9661C239.671 73.1741 239.619 73.3735 239.515 73.5641C239.411 73.7548 239.22 73.8501 238.943 73.8501C238.111 73.9195 237.418 74.1621 236.863 74.5781C236.308 74.9941 235.84 75.5488 235.459 76.2421C235.078 76.9355 234.74 77.7328 234.445 78.6341C234.15 79.5355 233.847 80.4715 233.535 81.4421L225.267 107.182C225.198 107.425 225.042 107.598 224.799 107.702C224.556 107.806 224.296 107.858 224.019 107.858C223.776 107.858 223.551 107.797 223.343 107.676C223.135 107.555 223.014 107.407 222.979 107.234L214.763 83.4701Z"/>
<path d="M250.799 94.9621C250.314 94.9621 249.967 95.0401 249.759 95.1961C249.551 95.3521 249.36 95.6208 249.187 96.0021L246.847 102.138C246.674 102.658 246.587 103.057 246.587 103.334C246.587 103.785 246.7 104.157 246.925 104.452C247.15 104.747 247.454 104.981 247.835 105.154C248.216 105.327 248.65 105.466 249.135 105.57C249.62 105.674 250.123 105.743 250.643 105.778C250.886 105.778 251.059 105.873 251.163 106.064C251.267 106.255 251.319 106.454 251.319 106.662C251.319 106.87 251.267 107.069 251.163 107.26C251.059 107.451 250.886 107.546 250.643 107.546C249.811 107.546 248.858 107.477 247.783 107.338C246.708 107.199 245.686 107.13 244.715 107.13C243.814 107.13 242.947 107.199 242.115 107.338C241.283 107.477 240.382 107.546 239.411 107.546C239.238 107.546 239.09 107.459 238.969 107.286C238.848 107.113 238.778 106.922 238.761 106.714C238.744 106.506 238.778 106.307 238.865 106.116C238.952 105.925 239.116 105.813 239.359 105.778L240.139 105.674C240.659 105.57 241.136 105.44 241.569 105.284C242.002 105.128 242.401 104.877 242.765 104.53C243.129 104.183 243.484 103.724 243.831 103.152C244.178 102.58 244.524 101.843 244.871 100.942L256.623 71.3541C256.727 71.0768 257.004 70.9381 257.455 70.9381C257.94 70.9381 258.322 71.0768 258.599 71.3541C259.466 73.5728 260.393 75.9475 261.381 78.4781C262.369 81.0088 263.383 83.5828 264.423 86.2001C265.463 88.8175 266.503 91.4175 267.543 94.0001C268.583 96.5828 269.571 99.0181 270.507 101.306C270.923 102.311 271.33 103.091 271.729 103.646C272.128 104.201 272.526 104.617 272.925 104.894C273.324 105.171 273.731 105.362 274.147 105.466C274.563 105.57 275.014 105.674 275.499 105.778C275.707 105.813 275.854 105.925 275.941 106.116C276.028 106.307 276.071 106.506 276.071 106.714C276.071 106.922 276.028 107.113 275.941 107.286C275.854 107.459 275.724 107.546 275.551 107.546C274.442 107.546 273.376 107.477 272.353 107.338C271.33 107.199 270.178 107.13 268.895 107.13C267.439 107.13 266.07 107.199 264.787 107.338C263.504 107.477 262.274 107.546 261.095 107.546C260.852 107.546 260.67 107.451 260.549 107.26C260.428 107.069 260.367 106.853 260.367 106.61C260.367 106.402 260.419 106.22 260.523 106.064C260.627 105.908 260.8 105.813 261.043 105.778C262.222 105.639 263.088 105.431 263.643 105.154C264.198 104.877 264.475 104.305 264.475 103.438C264.475 103.195 264.449 102.918 264.397 102.606C264.345 102.294 264.232 101.869 264.059 101.332C263.886 100.795 263.643 100.101 263.331 99.2521C263.019 98.4028 262.603 97.3195 262.083 96.0021C261.91 95.5515 261.676 95.2655 261.381 95.1441C261.086 95.0228 260.61 94.9621 259.951 94.9621L250.799 94.9621ZM259.743 92.9341C260.228 92.9341 260.558 92.8561 260.731 92.7001C260.904 92.5441 260.904 92.2581 260.731 91.8421L256.207 79.6741C256.138 79.5008 255.999 79.4141 255.791 79.4141C255.583 79.4141 255.444 79.5008 255.375 79.6741L250.643 91.8421C250.47 92.2928 250.452 92.5875 250.591 92.7261C250.73 92.8648 250.99 92.9341 251.371 92.9341L259.743 92.9341Z"/>
<path d="M283.715 81.0261C283.715 80.2635 283.689 79.5181 283.637 78.7901C283.585 78.0621 283.472 77.3861 283.299 76.7621C283.126 76.1381 282.857 75.6008 282.493 75.1501C282.129 74.6995 281.635 74.3875 281.011 74.2141C280.63 74.1101 280.231 74.0235 279.815 73.9541C279.399 73.8848 279 73.8328 278.619 73.7981C278.411 73.7981 278.255 73.7115 278.151 73.5381C278.047 73.3648 277.995 73.1741 277.995 72.9661C277.995 72.7581 278.047 72.5675 278.151 72.3941C278.255 72.2208 278.411 72.1341 278.619 72.1341C279.798 72.1341 280.855 72.1688 281.791 72.2381C282.727 72.3075 283.819 72.3421 285.067 72.3421C287.147 72.3075 288.872 72.2641 290.241 72.2121C291.61 72.1601 292.919 72.1341 294.167 72.1341C295.554 72.1341 296.923 72.2988 298.275 72.6281C299.627 72.9575 300.832 73.4861 301.889 74.2141C302.946 74.9421 303.796 75.8955 304.437 77.0741C305.078 78.2528 305.399 79.6741 305.399 81.3381C305.399 82.6555 305.2 83.7995 304.801 84.7701C304.402 85.7408 303.856 86.5728 303.163 87.2661C302.47 87.9595 301.646 88.5228 300.693 88.9561C299.74 89.3895 298.708 89.7275 297.599 89.9701C297.356 90.0395 297.235 90.1608 297.235 90.3341C297.235 90.4728 297.356 90.6115 297.599 90.7501C299.228 91.5475 300.485 92.4315 301.369 93.4021C302.253 94.3728 302.929 95.3781 303.397 96.4181C303.865 97.4581 304.203 98.5241 304.411 99.6161C304.619 100.708 304.844 101.774 305.087 102.814C305.26 103.611 305.546 104.192 305.945 104.556C306.344 104.92 306.751 105.102 307.167 105.102C307.583 105.102 307.982 104.929 308.363 104.582C308.744 104.235 309.039 103.715 309.247 103.022C309.316 102.745 309.455 102.563 309.663 102.476C309.871 102.389 310.07 102.372 310.261 102.424C310.452 102.476 310.625 102.58 310.781 102.736C310.937 102.892 310.998 103.057 310.963 103.23C310.859 104.097 310.616 104.842 310.235 105.466C309.854 106.09 309.394 106.601 308.857 107C308.32 107.399 307.713 107.693 307.037 107.884C306.361 108.075 305.694 108.17 305.035 108.17C303.926 108.17 302.92 107.927 302.019 107.442C301.118 106.957 300.511 106.263 300.199 105.362C299.991 104.773 299.792 104.131 299.601 103.438C299.41 102.745 299.228 102.043 299.055 101.332C298.882 100.621 298.708 99.9281 298.535 99.2521C298.362 98.5761 298.206 97.9781 298.067 97.4581C297.443 95.2395 296.637 93.6448 295.649 92.6741C294.661 91.7035 293.283 91.2181 291.515 91.2181C290.926 91.2181 290.423 91.3395 290.007 91.5821C289.591 91.8248 289.383 92.3101 289.383 93.0381L289.383 100.058C289.383 101.237 289.504 102.181 289.747 102.892C289.99 103.603 290.354 104.157 290.839 104.556C291.324 104.955 291.922 105.241 292.633 105.414C293.344 105.587 294.167 105.709 295.103 105.778C295.311 105.778 295.476 105.873 295.597 106.064C295.718 106.255 295.779 106.471 295.779 106.714C295.779 106.922 295.718 107.113 295.597 107.286C295.476 107.459 295.294 107.546 295.051 107.546C293.318 107.546 291.792 107.477 290.475 107.338C289.158 107.199 287.875 107.13 286.627 107.13C285.31 107.13 284.01 107.199 282.727 107.338C281.444 107.477 280.196 107.546 278.983 107.546C278.775 107.546 278.619 107.459 278.515 107.286C278.411 107.113 278.35 106.922 278.333 106.714C278.316 106.506 278.359 106.307 278.463 106.116C278.567 105.925 278.74 105.813 278.983 105.778C279.954 105.674 280.751 105.535 281.375 105.362C281.999 105.189 282.484 104.911 282.831 104.53C283.178 104.149 283.412 103.646 283.533 103.022C283.654 102.398 283.715 101.566 283.715 100.526L283.715 81.0261ZM289.383 87.2141C289.383 88.1155 289.634 88.6441 290.137 88.8001C290.64 88.9561 291.394 89.0341 292.399 89.0341C293.751 89.0341 294.886 88.9041 295.805 88.6441C296.724 88.3841 297.46 87.9508 298.015 87.3441C298.57 86.7375 298.96 85.9575 299.185 85.0041C299.41 84.0508 299.523 82.8808 299.523 81.4941C299.523 80.1768 299.402 79.0588 299.159 78.1401C298.916 77.2215 298.526 76.4761 297.989 75.9041C297.452 75.3321 296.75 74.9248 295.883 74.6821C295.016 74.4395 293.959 74.3181 292.711 74.3181C291.359 74.3181 290.466 74.4915 290.033 74.8381C289.6 75.1848 289.383 75.8955 289.383 76.9701L289.383 87.2141Z"/>
<path d="M338.627 72.2901C338.904 72.2901 339.173 72.3248 339.433 72.3941C339.693 72.4635 339.788 72.7408 339.719 73.2261C339.65 73.6075 339.615 74.0408 339.615 74.5261C339.615 75.0115 339.615 75.4968 339.615 75.9821C339.615 77.5421 339.667 78.9981 339.771 80.3501C339.771 80.4888 339.693 80.6015 339.537 80.6881C339.381 80.7748 339.199 80.8268 338.991 80.8441C338.783 80.8615 338.584 80.8355 338.393 80.7661C338.202 80.6968 338.09 80.5581 338.055 80.3501C337.812 78.9981 337.57 77.9408 337.327 77.1781C337.084 76.4155 336.746 75.8348 336.313 75.4361C335.88 75.0375 335.29 74.7861 334.545 74.6821C333.8 74.5781 332.82 74.5088 331.607 74.4741L328.487 74.4741C327.586 74.4741 326.866 74.4915 326.329 74.5261C325.792 74.5608 325.367 74.6908 325.055 74.9161C324.743 75.1415 324.535 75.4968 324.431 75.9821C324.327 76.4675 324.275 77.1435 324.275 78.0101L324.275 87.1101C324.275 87.5955 324.362 87.8988 324.535 88.0201C324.708 88.1415 324.882 88.2021 325.055 88.2021C326.65 88.2021 327.906 88.1328 328.825 87.9941C329.744 87.8555 330.437 87.6041 330.905 87.2401C331.373 86.8761 331.685 86.3995 331.841 85.8101C331.997 85.2208 332.127 84.4581 332.231 83.5221C332.266 83.3141 332.37 83.1581 332.543 83.0541C332.716 82.9501 332.907 82.8981 333.115 82.8981C333.323 82.8981 333.514 82.9501 333.687 83.0541C333.86 83.1581 333.947 83.3141 333.947 83.5221C333.947 84.0768 333.93 84.5708 333.895 85.0041C333.86 85.4375 333.826 85.8708 333.791 86.3041C333.756 86.7375 333.722 87.1881 333.687 87.6561C333.652 88.1241 333.635 88.6701 333.635 89.2941C333.635 90.3341 333.687 91.2788 333.791 92.1281C333.895 92.9775 333.947 94.0088 333.947 95.2221C333.947 95.3955 333.86 95.5255 333.687 95.6121C333.514 95.6988 333.323 95.7335 333.115 95.7161C332.907 95.6988 332.716 95.6468 332.543 95.5601C332.37 95.4735 332.266 95.3261 332.231 95.1181C332.127 94.1128 331.997 93.2981 331.841 92.6741C331.685 92.0501 331.373 91.5735 330.905 91.2441C330.437 90.9148 329.744 90.6895 328.825 90.5681C327.906 90.4468 326.65 90.3861 325.055 90.3861C324.882 90.3861 324.708 90.4468 324.535 90.5681C324.362 90.6895 324.275 90.9408 324.275 91.3221L324.275 98.1341C324.275 99.2435 324.353 100.188 324.509 100.968C324.665 101.748 324.899 102.389 325.211 102.892C325.523 103.395 325.904 103.793 326.355 104.088C326.806 104.383 327.343 104.599 327.967 104.738C328.452 104.842 328.998 104.92 329.605 104.972C330.212 105.024 330.844 105.05 331.503 105.05C332.335 105.05 333.115 105.015 333.843 104.946C334.571 104.877 335.126 104.773 335.507 104.634C336.2 104.391 336.798 104.131 337.301 103.854C337.804 103.577 338.228 103.213 338.575 102.762C338.922 102.311 339.208 101.748 339.433 101.072C339.658 100.396 339.84 99.5381 339.979 98.4981C340.014 98.2901 340.135 98.1515 340.343 98.0821C340.551 98.0128 340.776 97.9781 341.019 97.9781C341.262 97.9781 341.478 98.0301 341.669 98.1341C341.86 98.2381 341.938 98.3768 341.903 98.5501C341.73 100.006 341.574 101.367 341.435 102.632C341.296 103.897 341.244 105.189 341.279 106.506C341.279 106.61 341.21 106.757 341.071 106.948C340.932 107.139 340.603 107.234 340.083 107.234L321.207 107.234C319.89 107.234 318.598 107.269 317.333 107.338C316.068 107.407 314.932 107.477 313.927 107.546C313.65 107.546 313.442 107.468 313.303 107.312C313.164 107.156 313.078 106.965 313.043 106.74C313.008 106.515 313.06 106.307 313.199 106.116C313.338 105.925 313.563 105.813 313.875 105.778C314.707 105.674 315.418 105.527 316.007 105.336C316.596 105.145 317.082 104.868 317.463 104.504C317.844 104.14 318.13 103.681 318.321 103.126C318.512 102.571 318.607 101.861 318.607 100.994L318.607 80.9741C318.607 80.2115 318.581 79.4661 318.529 78.7381C318.477 78.0101 318.364 77.3341 318.191 76.7101C318.018 76.0861 317.749 75.5488 317.385 75.0981C317.021 74.6475 316.527 74.3355 315.903 74.1621C315.522 74.0581 315.123 73.9715 314.707 73.9021C314.291 73.8328 313.892 73.7808 313.511 73.7461C313.303 73.7461 313.147 73.6595 313.043 73.4861C312.939 73.3128 312.887 73.1221 312.887 72.9141C312.887 72.7061 312.939 72.5155 313.043 72.3421C313.147 72.1688 313.303 72.0821 313.511 72.0821C314.69 72.0821 315.747 72.1168 316.683 72.1861C317.619 72.2555 318.711 72.2901 319.959 72.2901L338.627 72.2901Z"/>
</g>
</g>
</svg>
