<?xml version="1.0" encoding="UTF-8" standalone="no"?>
<svg
   version="1.1"
   id="Layer_1"
   x="0px"
   y="0px"
   width="436.99997"
   viewBox="0 0 436.99997 392.99997"
   enable-background="new 0 0 437 393"
   xml:space="preserve"
   sodipodi:docname="logo.svg"
   height="392.99997"
   inkscape:version="1.2.1 (9c6d41e, 2022-07-14)"
   xmlns:inkscape="http://www.inkscape.org/namespaces/inkscape"
   xmlns:sodipodi="http://sodipodi.sourceforge.net/DTD/sodipodi-0.dtd"
   xmlns:xlink="http://www.w3.org/1999/xlink"
   xmlns="http://www.w3.org/2000/svg"
   xmlns:svg="http://www.w3.org/2000/svg"><defs
   id="defs67"><linearGradient
     inkscape:collect="always"
     id="linearGradient19270"><stop
       style="stop-color:#ffffff;stop-opacity:1;"
       offset="0.74848121"
       id="stop19266" /><stop
       style="stop-color:#ffffff;stop-opacity:0;"
       offset="0.99748349"
       id="stop19268" /></linearGradient><rect
     x="47.831212"
     y="253.32827"
     width="305.5883"
     height="90.347846"
     id="rect19222" /><linearGradient
     inkscape:collect="always"
     id="linearGradient19213"><stop
       style="stop-color:#ffffff;stop-opacity:1;"
       offset="0.27974278"
       id="stop19209" /><stop
       style="stop-color:#ffffff;stop-opacity:0;"
       offset="1"
       id="stop19211" /></linearGradient><rect
     x="22.14408"
     y="254.21404"
     width="365.8202"
     height="100.09124"
     id="rect19142" /><rect
     x="54.917318"
     y="267.50048"
     width="339.2473"
     height="111.60616"
     id="rect19136" /><rect
     x="42.516633"
     y="254.21404"
     width="405.67954"
     height="109.83464"
     id="rect19116" /><linearGradient
     id="linearGradient13755"
     inkscape:swatch="solid"><stop
       style="stop-color:#0049b8;stop-opacity:1;"
       offset="0"
       id="stop13753" /></linearGradient><linearGradient
     id="linearGradient11787"
     inkscape:swatch="solid"><stop
       style="stop-color:#ffffff;stop-opacity:1;"
       offset="0"
       id="stop11785" /></linearGradient><rect
     x="80.098167"
     y="260.63031"
     width="306.99947"
     height="109.52637"
     id="rect10463" /><rect
     x="46.066822"
     y="271.42073"
     width="334.08821"
     height="98.773906"
     id="rect10447" /><radialGradient
     inkscape:collect="always"
     xlink:href="#linearGradient19213"
     id="radialGradient19215"
     cx="103.33563"
     cy="294.81704"
     fx="103.33563"
     fy="294.81704"
     r="232.20403"
     gradientTransform="matrix(1,0,0,0.15338222,0,249.59735)"
     gradientUnits="userSpaceOnUse" /><radialGradient
     inkscape:collect="always"
     xlink:href="#linearGradient19270"
     id="radialGradient19272"
     cx="142.06776"
     cy="557.91449"
     fx="142.06776"
     fy="557.91449"
     r="138.05803"
     gradientTransform="matrix(1.2615973,-1.0063478,0.84500431,1.0593309,-471.55582,-51.019447)"
     gradientUnits="userSpaceOnUse" /></defs><sodipodi:namedview
   id="namedview65"
   pagecolor="#ffffff"
   bordercolor="#666666"
   borderopacity="1.0"
   inkscape:pageshadow="2"
   inkscape:pageopacity="0.0"
   inkscape:pagecheckerboard="0"
   inkscape:showpageshadow="2"
   inkscape:deskcolor="#d1d1d1"
   showgrid="false"
   inkscape:zoom="1.1289699"
   inkscape:cx="119.13515"
   inkscape:cy="199.29672"
   inkscape:window-width="1512"
   inkscape:window-height="842"
   inkscape:window-x="0"
   inkscape:window-y="38"
   inkscape:window-maximized="0"
   inkscape:current-layer="Layer_1" />
<path
   fill="#fefefe"
   opacity="1"
   stroke="none"
   d="m 245.99999,392.99998 c -82.33333,0 -164.166646,0 -245.999975,0 C 8e-6,262.00001 8e-6,131.00003 0,3.8e-5 145.66662,1.9e-5 291.33324,1.9e-5 436.9999,0 c 3e-5,130.99992 3e-5,261.99986 6e-5,392.99989 -63.49997,9e-5 -126.99997,9e-5 -190.99997,9e-5 M 181.90284,11.311463 C 165.27912,13.28767 149.2387,17.444662 133.63245,23.551903 37.179593,61.2971 -9.898115,176.01106 32.306695,270.66053 73.631882,363.33735 176.932,406.07386 271.56896,369.64616 355.25933,337.43202 404.81774,245.34188 385.51903,157.90249 364.6856,63.509579 278.51122,1.139607 181.90284,11.311463 Z"
   id="path2"
   style="fill:#ffffff;fill-opacity:0" />
<path
   fill="#0943ae"
   opacity="1"
   stroke="none"
   d="M 182.35271,11.247515 C 278.51122,1.139607 364.6856,63.509579 385.51903,157.90249 404.81774,245.34188 355.25933,337.43202 271.56896,369.64616 176.932,406.07386 73.631882,363.33735 32.306695,270.66053 -9.898115,176.01106 37.179593,61.2971 133.63245,23.551903 149.2387,17.444662 165.27912,13.28767 182.35271,11.247515 m 33.2039,211.312215 c 0.79102,-0.20251 1.58167,-0.5801 2.37311,-0.58177 17.14812,-0.0363 34.29752,-0.11981 51.44252,0.11237 1.6167,0.0219 3.92105,1.72407 4.68262,3.25484 3.10861,6.24856 5.65567,12.77389 8.61246,19.10252 0.70627,1.5117 2.14486,3.74164 3.3313,3.79608 7.55273,0.34656 15.12921,0.17635 23.36081,0.17635 -0.9722,-2.32506 -1.4921,-3.69782 -2.10917,-5.02536 -19.28701,-41.49469 -38.55468,-82.99851 -57.96983,-124.43319 -0.90488,-1.93116 -3.12166,-4.46295 -4.76193,-4.48833 -1.60292,-0.0248 -3.88411,2.50657 -4.78443,4.42434 -19.44534,41.42085 -38.74154,82.91171 -58.04928,124.39709 -0.67172,1.44326 -1.16568,2.96926 -2.02249,5.17881 7.09073,0 13.52777,-0.20467 19.94287,0.082 3.47075,0.15506 5.04539,-1.30686 6.27049,-4.29077 2.90636,-7.07888 6.08379,-14.04645 9.68095,-21.70495 M 204.18306,115.3434 c -3.14912,7.15678 -6.12371,14.39953 -9.57574,21.40707 -0.81595,1.65632 -3.22054,3.56315 -4.92223,3.59009 -16.81242,0.26579 -33.63191,0.24729 -50.44543,0.0179 -1.61435,-0.022 -3.92603,-1.65099 -4.67604,-3.15238 -3.19379,-6.39344 -5.8468,-13.05466 -8.88043,-19.53234 -0.63537,-1.35667 -2.00875,-3.31263 -3.10628,-3.3557 -7.52882,-0.29543 -15.07475,-0.1551 -23.131137,-0.1551 0.662017,1.91554 0.938697,3.02238 1.410917,4.03834 19.70881,42.40364 39.41622,84.808 59.24595,127.15507 0.62814,1.34143 2.77404,3.10895 3.79644,2.87328 1.70543,-0.39311 3.73944,-1.93547 4.48741,-3.53174 19.76969,-42.19089 39.39501,-84.44943 59.0221,-126.70707 0.50584,-1.0891 0.75548,-2.2972 1.06279,-3.25684 -8.21903,0 -15.97836,0 -24.28832,0.60947"
   id="path4"
   sodipodi:nodetypes="csssscccscssccsscscssccscssssccsscscc" />
<path
   fill="#f9fafc"
   opacity="1"
   stroke="none"
   d="m 215.29195,222.88279 c -3.33253,7.33553 -6.50996,14.3031 -9.41632,21.38198 -1.2251,2.98391 -2.79974,4.44583 -6.27049,4.29077 -6.4151,-0.28664 -12.85214,-0.082 -19.94287,-0.082 0.85681,-2.20955 1.35077,-3.73555 2.02249,-5.17881 19.30774,-41.48538 38.60394,-82.97624 58.04928,-124.39709 0.90032,-1.91777 3.18151,-4.44915 4.78443,-4.42434 1.64027,0.0254 3.85705,2.55717 4.76193,4.48833 19.41515,41.43468 38.68282,82.9385 57.96983,124.43319 0.61707,1.32754 1.13697,2.7003 2.10917,5.02536 -8.2316,0 -15.80808,0.17021 -23.36081,-0.17635 -1.18644,-0.0544 -2.62503,-2.28438 -3.3313,-3.79608 -2.95679,-6.32863 -5.50385,-12.85396 -8.61246,-19.10252 -0.76157,-1.53077 -3.06592,-3.23295 -4.68262,-3.25484 -17.145,-0.23218 -34.2944,-0.14867 -51.44252,-0.11237 -0.79144,0.002 -1.58209,0.37926 -2.63774,0.90474 m 9.55255,-21.88804 c 1.1431,0.70605 2.27083,1.99255 3.43183,2.02331 7.15319,0.18959 14.31393,0.096 21.47215,0.0964 4.56412,2.2e-4 9.12822,6e-5 14.59438,6e-5 -6.83243,-15.43528 -13.22664,-29.88054 -20.25702,-45.76302 -6.76581,15.26761 -12.87166,29.04599 -19.24134,43.64327 z"
   id="path6" />
<path
   fill="#f9fafc"
   opacity="1"
   stroke="none"
   d="m 204.45836,115.03866 c 8.03466,-0.30473 15.79399,-0.30473 24.01302,-0.30473 -0.30731,0.95964 -0.55695,2.16774 -1.06279,3.25684 -19.62709,42.25764 -39.25241,84.51618 -59.0221,126.70707 -0.74797,1.59627 -2.78198,3.13863 -4.48741,3.53174 -1.0224,0.23567 -3.1683,-1.53185 -3.79644,-2.87328 -19.82973,-42.34707 -39.53714,-84.75143 -59.24595,-127.15507 -0.47222,-1.01596 -0.7489,-2.1228 -1.410917,-4.03834 8.056387,0 15.602317,-0.14033 23.131137,0.1551 1.09753,0.0431 2.47091,1.99903 3.10628,3.3557 3.03363,6.47768 5.68664,13.1389 8.88043,19.53234 0.75001,1.50139 3.06169,3.13036 4.67604,3.15238 16.81352,0.22944 33.63301,0.24794 50.44543,-0.0179 1.70169,-0.0269 4.10628,-1.93377 4.92223,-3.59009 3.45203,-7.00754 6.42662,-14.25029 9.85104,-21.71181 m -53.82255,58.89497 c 4.43728,10.04822 8.87457,20.09646 13.86763,31.40325 7.07252,-16.05278 13.50107,-30.64389 20.14699,-45.72838 -13.84414,0 -26.6637,0 -40.25725,0 2.12283,4.92665 4.00285,9.28981 6.24263,14.32513 z"
   id="path8" />





















<path
   fill="#c5cddb"
   opacity="1"
   stroke="none"
   d="m 320.68831,280.08238 c -0.3016,-0.0128 -0.41812,-0.21143 -0.60269,-0.74863 0.2172,-0.0382 0.50251,0.26227 0.60269,0.74863 z"
   id="path52" />
<path
   fill="#1048b1"
   opacity="1"
   stroke="none"
   d="m 224.97641,200.58529 c 6.23777,-14.18782 12.34362,-27.9662 19.10943,-43.23381 7.03038,15.88248 13.42459,30.32774 20.25702,45.76302 -5.46616,0 -10.03026,1.6e-4 -14.59438,-6e-5 -7.15822,-3.7e-4 -14.31896,0.0932 -21.47215,-0.0964 -1.161,-0.0308 -2.28873,-1.31726 -3.29992,-2.43277 z"
   id="path54" />
<path
   fill="#144ab0"
   opacity="1"
   stroke="none"
   d="m 150.45592,173.59756 c -2.05989,-4.69925 -3.93991,-9.06241 -6.06274,-13.98906 13.59355,0 26.41311,0 40.25725,0 -6.64592,15.08449 -13.07447,29.6756 -20.14699,45.72838 -4.99306,-11.30679 -9.43035,-21.35503 -14.04752,-31.73932 z"
   id="path56" />



<text
   xml:space="preserve"
   style="font-size:26.6667px;white-space:pre;inline-size:36.5214;display:inline;fill:#ffffff;stroke:#0049b8;stroke-width:0"
   x="46.066822"
   y="297.56677"
   id="text10459" /><circle
   id="path13808"
   style="fill:#0049b8;stroke:#0049b8"
   cx="158.12125"
   cy="293.83163"
   r="0" /><circle
   id="path13810"
   style="fill:#0049b8;stroke:#0049b8"
   cx="92.963676"
   cy="269.34564"
   r="0" /><circle
   id="path16104"
   style="fill:#0049b8;stroke:#0049b8"
   cx="228.5269"
   cy="319.7605"
   r="0" /><circle
   id="path16106"
   style="fill:#0049b8;stroke:#0049b8"
   cx="228.5269"
   cy="314.44592"
   r="0" /><circle
   id="path16108"
   style="fill:#0049b8;stroke:#0049b8"
   cx="228.5269"
   cy="314.44592"
   r="0" /><circle
   id="path16110"
   style="fill:#0049b8;stroke:#0049b8"
   cx="76.175636"
   cy="16.8295"
   r="0" /><circle
   id="path17654"
   style="fill:#0049b8;stroke:#0049b8"
   cx="308.24557"
   cy="317.10321"
   r="0" /><circle
   id="path19108"
   style="fill:#0049b8;stroke:#0049b8"
   cx="201.95401"
   cy="75.289871"
   r="0" /><circle
   id="path19110"
   style="fill:#0049b8;stroke:#0049b8"
   cx="191.32484"
   cy="44.288158"
   r="0" /><circle
   id="path19112"
   style="fill:#0049b8;stroke:#0049b8"
   cx="191.32484"
   cy="44.288158"
   r="0" /><text
   xml:space="preserve"
   id="text19114"
   style="font-style:normal;font-variant:normal;font-weight:normal;font-stretch:normal;font-size:32px;font-family:'Heiti TC';-inkscape-font-specification:'Heiti TC';text-align:center;white-space:pre;shape-inside:url(#rect19116);fill:#0049b8;fill-opacity:1;stroke:#0049b8;stroke-width:0" /><text
   xml:space="preserve"
   style="font-style:normal;font-variant:normal;font-weight:normal;font-stretch:normal;font-size:32px;font-family:'Andale Mono';-inkscape-font-specification:'Andale Mono';text-align:center;text-anchor:middle;white-space:pre;inline-size:443.085;fill:#ffffff;fill-opacity:1;stroke:#0049b8;stroke-width:0"
   x="52.260029"
   y="271.04355"
   id="text19122" /><text
   xml:space="preserve"
   style="font-style:normal;font-variant:normal;font-weight:normal;font-stretch:normal;font-size:32px;font-family:'Andale Mono';-inkscape-font-specification:'Andale Mono';text-align:center;text-anchor:middle;fill:#ffffff;fill-opacity:1;stroke:#0049b8;stroke-width:0"
   x="102.74853"
   y="274.58658"
   id="text19126"><tspan
     sodipodi:role="line"
     id="tspan19124" /></text><text
   xml:space="preserve"
   id="text19134"
   style="font-style:normal;font-variant:normal;font-weight:normal;font-stretch:normal;font-size:29.3333px;font-family:'Andale Mono';-inkscape-font-specification:'Andale Mono';text-align:center;white-space:pre;shape-inside:url(#rect19136);fill:#ffffff;fill-opacity:1;stroke:#0049b8;stroke-width:0" /><text
   xml:space="preserve"
   id="text19140"
   style="fill:#ffffff;stroke-width:0;stroke:#0049b8;font-size:29.33333333px;fill-opacity:1;text-align:center;-inkscape-font-specification:'Andale Mono';font-family:'Andale Mono';font-weight:normal;font-style:normal;font-stretch:normal;font-variant:normal;white-space:pre;shape-inside:url(#rect19142)" /><text
   xml:space="preserve"
   style="font-style:normal;font-variant:normal;font-weight:normal;font-stretch:normal;font-size:29.3333px;font-family:'Andale Mono';-inkscape-font-specification:'Andale Mono';text-align:center;text-anchor:middle;fill:#ffffff;fill-opacity:1;stroke:#0049b8;stroke-width:0"
   x="128.43565"
   y="290.53033"
   id="text19148"><tspan
     id="tspan19146"
     sodipodi:role="line" /></text><text
   xml:space="preserve"
   id="text19220"
   style="font-style:normal;font-variant:normal;font-weight:normal;font-stretch:normal;font-size:37.3333px;line-height:1.2;font-family:'Avenir Next';-inkscape-font-specification:'Avenir Next';text-align:center;white-space:pre;shape-inside:url(#rect19222);fill:url(#radialGradient19272);fill-opacity:1;stroke:#0049b8;stroke-width:0"><tspan
     x="61.335965"
     y="284.39184"
     id="tspan21805">Software Artifact
</tspan><tspan
     x="122.95427"
     y="329.1918"
     id="tspan21807"> Analyzer</tspan></text></svg>
