<?xml version="1.0" encoding="UTF-8" standalone="no"?>
<svg
   version="1.1"
   width="1000"
   height="1000"
   viewBox="0 0 1000 1000"
   xml:space="preserve"
   id="svg7445"
   sodipodi:docname="commit.svg"
   inkscape:version="1.2.1 (9c6d41e, 2022-07-14)"
   xmlns:inkscape="http://www.inkscape.org/namespaces/inkscape"
   xmlns:sodipodi="http://sodipodi.sourceforge.net/DTD/sodipodi-0.dtd"
   xmlns:xlink="http://www.w3.org/1999/xlink"
   xmlns="http://www.w3.org/2000/svg"
   xmlns:svg="http://www.w3.org/2000/svg"><sodipodi:namedview
   id="namedview7447"
   pagecolor="#ffffff"
   bordercolor="#000000"
   borderopacity="0.25"
   inkscape:showpageshadow="false"
   inkscape:pageopacity="0"
   inkscape:pagecheckerboard="true"
   inkscape:deskcolor="#d1d1d1"
   showgrid="false"
   inkscape:zoom="0.697"
   inkscape:cx="42.324247"
   inkscape:cy="501.43472"
   inkscape:window-width="1512"
   inkscape:window-height="837"
   inkscape:window-x="0"
   inkscape:window-y="38"
   inkscape:window-maximized="0"
   inkscape:current-layer="svg7445"
   showborder="false"
   borderlayer="false"
   shape-rendering="crispEdges" />
<desc
   id="desc7436">Created with Fabric.js 3.5.0</desc>
<defs
   id="defs7438"><linearGradient
   id="linearGradient7931"
   inkscape:swatch="solid"><stop
     style="stop-color:#000000;stop-opacity:1;"
     offset="0"
     id="stop7929" /></linearGradient>
<linearGradient
   inkscape:collect="always"
   xlink:href="#linearGradient7931"
   id="linearGradient7933"
   x1="-0.5"
   y1="500"
   x2="1000.5"
   y2="500"
   gradientUnits="userSpaceOnUse" /></defs>
<rect
   x="0"
   y="0"
   width="100%"
   height="100%"
   fill="#ffffff"
   id="rect7440"
   style="stroke:url(#linearGradient7933);stroke-opacity:0;opacity:0" />
<g
   transform="matrix(41.4715 0 0 41.4715 500.46 499.5411)"
   id="323171"
   style="fill-rule:nonzero;stroke:#bd7ebe;stroke-opacity:1;fill:#bd7ebe;fill-opacity:1">
<path
   style="stroke:#bd7ebe;stroke-width:1;stroke-dasharray:none;stroke-linecap:butt;stroke-dashoffset:0;stroke-linejoin:miter;stroke-miterlimit:4;is-custom-font:none;font-file-url:none;fill:#bd7ebe;fill-rule:nonzero;opacity:1;stroke-opacity:1;fill-opacity:1"
   vector-effect="non-scaling-stroke"
   transform=" translate(-11.9999, -11.9999)"
   d="M 23.546 10.93 L 13.067 0.452 c -0.604 -0.603 -1.582 -0.603 -2.188 0 L 8.708 2.627 l 2.76 2.76 c 0.645 -0.215 1.379 -0.07 1.889 0.441 c 0.516 0.515 0.658 1.258 0.438 1.9 l 2.658 2.66 c 0.645 -0.223 1.387 -0.078 1.9 0.435 c 0.721 0.72 0.721 1.884 0 2.604 c -0.719 0.719 -1.881 0.719 -2.6 0 c -0.539 -0.541 -0.674 -1.337 -0.404 -1.996 L 12.86 8.955 v 6.525 c 0.176 0.086 0.342 0.203 0.488 0.348 c 0.713 0.721 0.713 1.883 0 2.6 c -0.719 0.721 -1.889 0.721 -2.609 0 c -0.719 -0.719 -0.719 -1.879 0 -2.598 c 0.182 -0.18 0.387 -0.316 0.605 -0.406 V 8.835 c -0.217 -0.091 -0.424 -0.222 -0.6 -0.401 c -0.545 -0.545 -0.676 -1.342 -0.396 -2.009 L 7.636 3.7 L 0.45 10.881 c -0.6 0.605 -0.6 1.584 0 2.189 l 10.48 10.477 c 0.604 0.604 1.582 0.604 2.186 0 l 10.43 -10.43 c 0.605 -0.603 0.605 -1.582 0 -2.187"
   stroke-linecap="round"
   id="path7442" />
</g>
</svg>
