<?xml version="1.0" encoding="UTF-8" standalone="no"?>
<svg
   version="1.1"
   width="1000"
   height="1000"
   viewBox="0 0 1000 1000"
   enable-background="new 0 0 320 100"
   xml:space="preserve"
   id="svg152"
   sodipodi:docname="developer.svg"
   inkscape:version="1.2.1 (9c6d41e, 2022-07-14)"
   xmlns:inkscape="http://www.inkscape.org/namespaces/inkscape"
   xmlns:sodipodi="http://sodipodi.sourceforge.net/DTD/sodipodi-0.dtd"
   xmlns="http://www.w3.org/2000/svg"
   xmlns:svg="http://www.w3.org/2000/svg"><sodipodi:namedview
   id="namedview154"
   pagecolor="#ffffff"
   bordercolor="#000000"
   borderopacity="0.25"
   inkscape:showpageshadow="false"
   inkscape:pageopacity="0.0"
   inkscape:pagecheckerboard="true"
   inkscape:deskcolor="#d1d1d1"
   showgrid="false"
   inkscape:zoom="0.236"
   inkscape:cx="95.338983"
   inkscape:cy="913.13559"
   inkscape:window-width="1512"
   inkscape:window-height="837"
   inkscape:window-x="-50"
   inkscape:window-y="38"
   inkscape:window-maximized="0"
   inkscape:current-layer="g3562"
   showborder="false"
   borderlayer="false"
   shape-rendering="auto" />
<desc
   id="desc109">Created with Fabric.js 3.5.0</desc>
<defs
   id="defs111">
</defs>



<g
   transform="matrix(1.1072001,0,0,1.2689926,497.87986,502.11633)"
   id="g3564"
   style="display:inline">
<g
   vector-effect="non-scaling-stroke"
   id="g3562"
   style="fill:#d09292;fill-opacity:1">
		
		<g
   transform="matrix(1.1931501,0,0,1.1348654,-5.7317452,-218.2096)"
   id="g3552"
   style="fill:#976e6e;fill-opacity:1">
<circle
   style="opacity:1;fill:#976e6e;fill-opacity:1;fill-rule:nonzero;stroke:none;stroke-width:1;stroke-linecap:butt;stroke-linejoin:miter;stroke-miterlimit:4;stroke-dasharray:none;stroke-dashoffset:0"
   vector-effect="non-scaling-stroke"
   cx="0"
   cy="0"
   r="155.78101"
   id="circle3550" />
</g>
		<g
   transform="matrix(1.1563,0,0,1.1563,0.0076,7.2727)"
   id="g3556"
   style="fill:#977c87;fill-opacity:1">
<polygon
   style="opacity:1;fill:#977c87;fill-rule:nonzero;stroke:none;stroke-width:1;stroke-linecap:butt;stroke-linejoin:miter;stroke-miterlimit:4;stroke-dasharray:none;stroke-dashoffset:0;fill-opacity:1"
   vector-effect="non-scaling-stroke"
   points="-38.376,19.188 38.376,19.188 0,-19.188 "
   id="polygon3554" />
</g>
		<g
   transform="matrix(1.1563,0,0,1.1563,0.014,186.853)"
   id="g3560"
   style="fill:#976e6e;fill-opacity:1">
<path
   style="opacity:1;fill:#976e6e;fill-rule:nonzero;stroke:none;stroke-width:1;stroke-linecap:butt;stroke-linejoin:miter;stroke-miterlimit:4;stroke-dasharray:none;stroke-dashoffset:0;fill-opacity:1"
   vector-effect="non-scaling-stroke"
   transform="translate(-393.1155,-554.699)"
   d="m 756.096,705.838 c 0.486,-0.283 0.977,-0.562 1.455,-0.854 0.342,-0.209 0.676,-0.434 1.014,-0.65 0.504,-0.32 1.006,-0.645 1.498,-0.979 0.309,-0.215 0.617,-0.436 0.922,-0.654 0.512,-0.363 1.018,-0.73 1.516,-1.109 0.293,-0.223 0.58,-0.451 0.875,-0.684 0.494,-0.391 0.982,-0.785 1.471,-1.191 0.113,-0.098 0.234,-0.188 0.352,-0.285 0.188,-0.16 0.363,-0.33 0.549,-0.494 0.438,-0.381 0.871,-0.77 1.297,-1.164 0.344,-0.318 0.682,-0.641 1.016,-0.965 0.348,-0.338 0.691,-0.684 1.031,-1.029 0.389,-0.395 0.768,-0.789 1.141,-1.193 0.266,-0.285 0.527,-0.572 0.785,-0.861 0.42,-0.469 0.832,-0.939 1.23,-1.42 0.201,-0.238 0.398,-0.48 0.598,-0.725 0.432,-0.527 0.854,-1.062 1.264,-1.607 0.162,-0.211 0.316,-0.428 0.479,-0.645 0.422,-0.568 0.834,-1.146 1.232,-1.729 0.148,-0.217 0.293,-0.439 0.438,-0.66 0.387,-0.58 0.766,-1.164 1.131,-1.756 0.158,-0.26 0.311,-0.525 0.471,-0.787 0.33,-0.553 0.65,-1.109 0.961,-1.672 0.189,-0.342 0.369,-0.691 0.553,-1.037 0.252,-0.486 0.512,-0.973 0.752,-1.467 0.221,-0.449 0.434,-0.908 0.641,-1.365 0.186,-0.395 0.373,-0.795 0.545,-1.195 0.244,-0.559 0.473,-1.131 0.699,-1.697 0.123,-0.307 0.246,-0.613 0.363,-0.92 0.248,-0.652 0.48,-1.314 0.705,-1.98 0.08,-0.234 0.164,-0.469 0.24,-0.705 0.232,-0.713 0.447,-1.436 0.654,-2.16 0.059,-0.199 0.113,-0.395 0.17,-0.596 0.199,-0.732 0.383,-1.473 0.557,-2.215 0.047,-0.209 0.096,-0.414 0.143,-0.619 0.158,-0.717 0.301,-1.436 0.434,-2.16 0.045,-0.254 0.096,-0.508 0.137,-0.762 0.115,-0.666 0.213,-1.336 0.307,-2.01 0.045,-0.332 0.086,-0.662 0.125,-0.994 0.07,-0.6 0.133,-1.197 0.188,-1.797 0.035,-0.43 0.066,-0.857 0.098,-1.285 0.035,-0.521 0.064,-1.039 0.086,-1.562 0.008,-0.117 0.008,-0.234 0.012,-0.35 v -4.289 c -0.018,-0.43 -0.029,-0.859 -0.055,-1.285 -0.031,-0.555 -0.078,-1.105 -0.125,-1.662 -0.037,-0.441 -0.07,-0.889 -0.117,-1.332 -0.055,-0.514 -0.125,-1.027 -0.193,-1.539 -0.062,-0.475 -0.121,-0.953 -0.197,-1.428 -0.07,-0.463 -0.16,-0.928 -0.248,-1.391 -0.092,-0.512 -0.18,-1.023 -0.287,-1.527 -0.086,-0.424 -0.189,-0.846 -0.289,-1.266 -0.127,-0.539 -0.242,-1.078 -0.383,-1.607 -0.104,-0.4 -0.227,-0.799 -0.342,-1.201 -0.152,-0.541 -0.299,-1.082 -0.469,-1.615 -0.129,-0.408 -0.271,-0.812 -0.408,-1.219 -0.178,-0.518 -0.346,-1.041 -0.535,-1.553 -0.156,-0.424 -0.33,-0.844 -0.498,-1.266 -0.189,-0.482 -0.377,-0.975 -0.58,-1.453 -0.186,-0.436 -0.387,-0.861 -0.582,-1.293 -0.211,-0.461 -0.414,-0.924 -0.633,-1.377 -0.207,-0.43 -0.434,-0.848 -0.646,-1.271 -0.232,-0.451 -0.459,-0.906 -0.705,-1.348 -0.219,-0.4 -0.457,-0.799 -0.688,-1.199 -0.264,-0.457 -0.525,-0.916 -0.799,-1.371 -0.227,-0.365 -0.467,-0.725 -0.703,-1.088 -0.303,-0.477 -0.607,-0.953 -0.928,-1.418 -0.229,-0.338 -0.471,-0.668 -0.709,-1.002 -0.342,-0.48 -0.688,-0.963 -1.047,-1.434 -0.242,-0.318 -0.494,-0.635 -0.746,-0.951 -0.369,-0.465 -0.742,-0.93 -1.125,-1.385 -0.104,-0.125 -0.201,-0.256 -0.307,-0.383 L 579.988,389.97 c -11.676,-13.675 -28.16,-20.803 -44.83,-21.051 v -0.022 h -5.316 v 53.142 h 45.984 c 18.549,0 33.645,15.093 33.645,33.645 v 227.965 c 0,8.531 -3.209,16.316 -8.465,22.252 h -22.76 c 9.566,-3.057 16.498,-12.018 16.498,-22.598 V 461.336 c 0,-13.102 -10.623,-23.723 -23.727,-23.723 h -355.82 c -13.101,0 -23.722,10.621 -23.722,23.723 v 221.967 c 0,10.58 6.928,19.539 16.496,22.598 h -22.759 c -5.255,-5.938 -8.464,-13.723 -8.464,-22.254 V 455.688 c 0,-18.555 15.092,-33.646 33.645,-33.646 h 45.983 V 368.9 c 0,0 -7.885,0.152 -10.508,0.325 -14.899,0.983 -29.178,8.497 -39.639,20.749 L 14.345,614.697 c -0.107,0.125 -0.205,0.256 -0.31,0.381 -0.382,0.457 -0.753,0.92 -1.123,1.387 -0.25,0.318 -0.504,0.633 -0.748,0.951 -0.358,0.471 -0.704,0.951 -1.047,1.436 -0.237,0.332 -0.479,0.662 -0.708,1 -0.319,0.467 -0.625,0.941 -0.93,1.418 -0.234,0.361 -0.473,0.723 -0.699,1.09 -0.276,0.451 -0.538,0.912 -0.801,1.369 -0.232,0.4 -0.467,0.799 -0.687,1.199 -0.244,0.441 -0.469,0.896 -0.7,1.348 -0.219,0.424 -0.443,0.844 -0.651,1.271 -0.221,0.453 -0.423,0.914 -0.632,1.377 -0.196,0.43 -0.399,0.859 -0.584,1.293 -0.204,0.48 -0.388,0.971 -0.58,1.453 -0.167,0.426 -0.342,0.842 -0.498,1.266 -0.189,0.514 -0.36,1.035 -0.533,1.555 -0.138,0.406 -0.283,0.809 -0.41,1.215 -0.168,0.535 -0.317,1.076 -0.47,1.619 -0.114,0.398 -0.234,0.799 -0.34,1.199 -0.137,0.529 -0.256,1.07 -0.382,1.609 -0.098,0.42 -0.202,0.84 -0.292,1.266 -0.106,0.506 -0.19,1.016 -0.284,1.525 -0.085,0.465 -0.175,0.928 -0.249,1.391 -0.074,0.477 -0.133,0.951 -0.194,1.43 -0.07,0.514 -0.142,1.025 -0.196,1.537 -0.047,0.441 -0.08,0.889 -0.118,1.334 -0.045,0.555 -0.092,1.105 -0.125,1.66 -0.024,0.432 -0.037,0.863 -0.053,1.299 C 0,651.582 0,651.59 0,651.596 v 4.191 c 0.004,0.139 0.005,0.275 0.011,0.41 0.021,0.523 0.051,1.041 0.085,1.562 0.028,0.43 0.061,0.854 0.099,1.287 0.054,0.6 0.115,1.197 0.186,1.793 0.04,0.336 0.082,0.666 0.127,0.998 0.091,0.674 0.193,1.346 0.305,2.01 0.044,0.254 0.09,0.508 0.138,0.762 0.131,0.723 0.273,1.443 0.433,2.16 0.045,0.205 0.095,0.41 0.143,0.619 0.172,0.742 0.354,1.48 0.556,2.213 0.055,0.203 0.113,0.396 0.169,0.598 0.207,0.725 0.422,1.443 0.652,2.16 0.077,0.232 0.161,0.469 0.241,0.705 0.227,0.666 0.457,1.326 0.705,1.979 0.115,0.309 0.241,0.615 0.363,0.92 0.228,0.568 0.457,1.141 0.699,1.697 0.175,0.402 0.361,0.801 0.542,1.197 0.211,0.457 0.42,0.914 0.642,1.365 0.241,0.492 0.497,0.98 0.752,1.467 0.184,0.346 0.363,0.695 0.553,1.037 0.308,0.562 0.632,1.119 0.96,1.67 0.157,0.262 0.311,0.527 0.472,0.789 0.362,0.59 0.742,1.174 1.129,1.756 0.146,0.221 0.289,0.441 0.438,0.658 0.398,0.584 0.812,1.16 1.231,1.73 0.161,0.213 0.317,0.432 0.479,0.645 0.41,0.545 0.833,1.076 1.265,1.607 0.197,0.244 0.393,0.484 0.594,0.725 0.402,0.479 0.813,0.951 1.231,1.418 0.258,0.291 0.52,0.576 0.785,0.863 0.373,0.402 0.751,0.799 1.14,1.191 0.341,0.35 0.686,0.693 1.033,1.031 0.335,0.324 0.671,0.645 1.015,0.965 0.427,0.396 0.859,0.781 1.296,1.164 0.188,0.162 0.362,0.332 0.55,0.49 0.116,0.102 0.236,0.191 0.353,0.289 0.482,0.406 0.974,0.801 1.471,1.191 0.288,0.229 0.577,0.461 0.869,0.684 0.499,0.379 1.006,0.746 1.518,1.107 0.307,0.219 0.612,0.441 0.922,0.656 0.492,0.336 0.995,0.658 1.498,0.98 0.337,0.217 0.672,0.438 1.015,0.646 0.478,0.295 0.967,0.572 1.455,0.855 0.037,0.018 0.073,0.039 0.108,0.061 H 0.001 v 34.604 h 786.22 V 705.9 h -30.232 v -0.004 c 0.034,-0.019 0.07,-0.039 0.107,-0.058 z"
   stroke-linecap="round"
   id="path3558" />
</g>
</g>
</g></svg>
