<?xml version="1.0" encoding="UTF-8" standalone="no"?>
<!DOCTYPE svg PUBLIC "-//W3C//DTD SVG 1.1//EN" "http://www.w3.org/Graphics/SVG/1.1/DTD/svg11.dtd">
<!-- Created with Vectornator (http://vectornator.io/) -->
<svg height="1000.0pt" stroke-miterlimit="10" style="fill-rule:nonzero;clip-rule:evenodd;stroke-linecap:round;stroke-linejoin:round;" version="1.1" viewBox="0 0 1000 1000" width="1000.0pt" xml:space="preserve" xmlns="http://www.w3.org/2000/svg" xmlns:xlink="http://www.w3.org/1999/xlink">
<defs/>
<clipPath id="ArtboardFrame">
<rect height="1000" width="1000" x="0" y="0"/>
</clipPath>
<g clip-path="url(#ArtboardFrame)" id="343818">
<path d="M603.164 156.277C603.058 156.277 602.916 156.295 602.81 156.295C602.687 156.295 602.58 156.277 602.457 156.277C381.452 156.277 202.261 345.592 202.261 579.143C202.261 812.657 381.452 1001.99 602.457 1001.99C602.58 1001.99 602.687 1001.99 602.81 1001.99C602.916 1001.99 603.058 1001.99 603.164 1001.99C824.169 1001.99 1003.36 812.657 1003.36 579.143C1003.38 345.592 824.187 156.277 603.164 156.277ZM603.164 880.936C603.058 880.936 602.916 880.918 602.81 880.918C602.687 880.918 602.58 880.936 602.457 880.936C566.283 880.936 536.951 849.963 536.951 811.723C536.951 773.52 566.283 742.547 602.457 742.547C602.58 742.547 602.687 742.547 602.81 742.547C602.916 742.547 603.058 742.547 603.164 742.547C639.32 742.547 668.687 773.52 668.687 811.723C668.687 849.944 639.373 880.936 603.164 880.936ZM697.1 353.512C692.821 422.576 662.941 627.975 662.941 627.975C662.941 662.61 636.085 690.669 603.305 690.669C603.129 690.669 602.952 690.669 602.793 690.669C602.633 690.669 602.439 690.669 602.28 690.669C569.518 690.669 542.662 662.573 542.662 627.975C542.662 627.975 512.799 422.576 508.521 353.512C506.399 318.934 531.47 254.727 602.298 254.727C602.474 254.727 602.651 254.745 602.81 254.745C602.97 254.745 603.146 254.727 603.323 254.727C674.133 254.727 699.239 318.934 697.1 353.512Z" fill="#4c5f7a" fill-rule="nonzero" opacity="1" stroke="none"/>
<path d="M192.359-0.196515L261.848-0.196515C367.989-0.196515 454.034 80.2187 454.034 179.416L454.034 209.517C454.034 308.715 367.989 389.13 261.848 389.13L192.359 389.13C86.2181 389.13 0.173498 308.715 0.173498 209.517L0.173498 179.416C-0.0458428 84.6529 78.5471 6.03319 179.725-0.196515L192.359-0.196515Z" fill="#4c5f7a" fill-rule="evenodd" opacity="1" stroke="#ffffff" stroke-linecap="round" stroke-linejoin="miter" stroke-opacity="0" stroke-width="15.689"/>
<path d="M195.483 17.3035L258.725 17.3035C355.324 17.3035 433.633 90.4895 433.633 180.769L433.633 208.164C433.633 298.444 355.324 371.63 258.725 371.63L195.483 371.63C98.8835 371.63 20.5743 298.444 20.5743 208.164L20.5743 180.769C20.3746 94.525 91.9021 22.9731 183.984 17.3035L195.483 17.3035Z" fill="#4c5f7a" fill-rule="evenodd" opacity="1" stroke="#ffffff" stroke-linecap="round" stroke-linejoin="miter" stroke-width="7.69"/>
<path d="M192.359 388.418L261.848 388.418C367.989 388.418 454.034 468.833 454.034 568.03L454.034 598.131C454.034 697.329 367.989 777.744 261.848 777.744L192.359 777.744C86.2181 777.744 0.173498 697.329 0.173498 598.131L0.173498 568.03C-0.0458428 473.267 78.5471 394.647 179.725 388.418L192.359 388.418Z" fill="#4c5f7a" fill-rule="evenodd" opacity="1" stroke="#ffffff" stroke-linecap="round" stroke-linejoin="miter" stroke-opacity="0" stroke-width="15.689"/>
<path d="M195.483 405.918L258.725 405.918C355.324 405.918 433.633 479.104 433.633 569.383L433.633 596.778C433.633 687.058 355.324 760.244 258.725 760.244L195.483 760.244C98.8835 760.244 20.5743 687.058 20.5743 596.778L20.5743 569.383C20.3746 483.139 91.9021 411.587 183.984 405.918L195.483 405.918Z" fill="#4c5f7a" fill-rule="evenodd" opacity="1" stroke="#ffffff" stroke-linecap="round" stroke-linejoin="miter" stroke-width="7.69"/>
</g>
</svg>
