<?xml version="1.0" encoding="UTF-8" standalone="no"?>
<svg
   version="1.1"
   width="1000"
   height="1000"
   viewBox="0 0 1000 1000"
   xml:space="preserve"
   id="svg77"
   sodipodi:docname="issue.svg"
   inkscape:version="1.2.1 (9c6d41e, 2022-07-14)"
   xmlns:inkscape="http://www.inkscape.org/namespaces/inkscape"
   xmlns:sodipodi="http://sodipodi.sourceforge.net/DTD/sodipodi-0.dtd"
   xmlns="http://www.w3.org/2000/svg"
   xmlns:svg="http://www.w3.org/2000/svg"><sodipodi:namedview
   id="namedview79"
   pagecolor="#ffffff"
   bordercolor="#000000"
   borderopacity="0.25"
   inkscape:showpageshadow="2"
   inkscape:pageopacity="0.0"
   inkscape:pagecheckerboard="0"
   inkscape:deskcolor="#d1d1d1"
   showgrid="false"
   inkscape:zoom="0.725"
   inkscape:cx="279.31034"
   inkscape:cy="500"
   inkscape:window-width="1512"
   inkscape:window-height="945"
   inkscape:window-x="0"
   inkscape:window-y="37"
   inkscape:window-maximized="0"
   inkscape:current-layer="343818" />
<desc
   id="desc68">Created with Fabric.js 3.5.0</desc>
<defs
   id="defs70">
</defs>
<rect
   x="0"
   y="0"
   width="100%"
   height="100%"
   fill="#ffffff"
   id="rect72" />
<g
   transform="matrix(21.8995 0 0 21.9717 498.7608 497.8404)"
   id="343818">
<path
   style="stroke:none;stroke-width:1;stroke-dasharray:none;stroke-linecap:butt;stroke-dashoffset:0;stroke-linejoin:miter;stroke-miterlimit:4;is-custom-font:none;font-file-url:none;fill:#4c5f7a;fill-rule:nonzero;opacity:1;fill-opacity:1"
   vector-effect="non-scaling-stroke"
   transform=" translate(-22.655, -22.6555)"
   d="M 22.675 0.02 c -0.006 0 -0.014 0.001 -0.02 0.001 c -0.007 0 -0.013 -0.001 -0.02 -0.001 C 10.135 0.02 0 10.154 0 22.656 c 0 12.5 10.135 22.635 22.635 22.635 c 0.007 0 0.013 0 0.02 0 c 0.006 0 0.014 0 0.02 0 c 12.5 0 22.635 -10.135 22.635 -22.635 C 45.311 10.154 35.176 0.02 22.675 0.02 z M 22.675 38.811 c -0.006 0 -0.014 -0.001 -0.02 -0.001 c -0.007 0 -0.013 0.001 -0.02 0.001 c -2.046 0 -3.705 -1.658 -3.705 -3.705 c 0 -2.045 1.659 -3.703 3.705 -3.703 c 0.007 0 0.013 0 0.02 0 c 0.006 0 0.014 0 0.02 0 c 2.045 0 3.706 1.658 3.706 3.703 C 26.381 37.152 24.723 38.811 22.675 38.811 z M 27.988 10.578 c -0.242 3.697 -1.932 14.692 -1.932 14.692 c 0 1.854 -1.519 3.356 -3.373 3.356 c -0.01 0 -0.02 0 -0.029 0 c -0.009 0 -0.02 0 -0.029 0 c -1.853 0 -3.372 -1.504 -3.372 -3.356 c 0 0 -1.689 -10.995 -1.931 -14.692 C 17.202 8.727 18.62 5.29 22.626 5.29 c 0.01 0 0.02 0.001 0.029 0.001 c 0.009 0 0.019 -0.001 0.029 -0.001 C 26.689 5.29 28.109 8.727 27.988 10.578 z"
   stroke-linecap="round"
   id="path74" />
</g>
</svg>
