<?xml version="1.0" encoding="UTF-8" standalone="no"?>
<!DOCTYPE svg PUBLIC "-//W3C//DTD SVG 1.1//EN" "http://www.w3.org/Graphics/SVG/1.1/DTD/svg11.dtd">
<!-- Created with Vectornator (http://vectornator.io/) -->
<svg height="100%" stroke-miterlimit="10" style="fill-rule:nonzero;clip-rule:evenodd;stroke-linecap:round;stroke-linejoin:round;" version="1.1" viewBox="0 0 437 393" width="100%" xml:space="preserve" xmlns="http://www.w3.org/2000/svg" xmlns:vectornator="http://vectornator.io" xmlns:xlink="http://www.w3.org/1999/xlink">
<defs>
<radialGradient cx="163.959" cy="181.19" gradientTransform="matrix(1 0 0 1 0 0)" gradientUnits="userSpaceOnUse" id="RadialGradient" r="64.5128">
<stop offset="0.823511" stop-color="#ffffff" stop-opacity="0.356309"/>
<stop offset="1" stop-color="#ffffff" stop-opacity="0"/>
</radialGradient>
<radialGradient cx="205.107" cy="278.067" gradientTransform="matrix(1 0 0 1.13035 13.5565 -55.5191)" gradientUnits="userSpaceOnUse" id="RadialGradient_2" r="95.638">
<stop offset="0.921858" stop-color="#ffffff"/>
<stop offset="0.997483" stop-color="#ffffff" stop-opacity="0"/>
</radialGradient>
<radialGradient cx="205.107" cy="320.003" gradientTransform="matrix(1 0 0 1 0 0)" gradientUnits="userSpaceOnUse" id="RadialGradient_3" r="89.34">
<stop offset="0.876905" stop-color="#ffffff"/>
<stop offset="1" stop-color="#ffffff" stop-opacity="0"/>
</radialGradient>
<radialGradient cx="201.608" cy="92.7259" gradientTransform="matrix(1 0 0 1 13.2933 -27.295)" gradientUnits="userSpaceOnUse" id="RadialGradient_4" r="148.842">
<stop offset="0.932134" stop-color="#ffffff"/>
<stop offset="1" stop-color="#ffffff" stop-opacity="0"/>
</radialGradient>
</defs>
<clipPath id="ArtboardFrame">
<rect height="393" width="437" x="0" y="0"/>
</clipPath>
<g clip-path="url(#ArtboardFrame)" id="Untitled" vectornator:layerName="Untitled">
<path d="M246 393C163.667 393 81.8333 393 1.5e-05 393C8e-06 262 8e-06 131 0 3.8e-05C145.667 1.9e-05 291.333 1.9e-05 437 3.87468e-14C437 131 437 262 437 393C373.5 393 310 393 246 393M181.903 11.3115C165.279 13.2877 149.239 17.4447 133.632 23.5519C37.1796 61.2971-9.89812 176.011 32.3067 270.661C73.6319 363.337 176.932 406.074 271.569 369.646C355.259 337.432 404.818 245.342 385.519 157.902C364.686 63.5096 278.511 1.13961 181.903 11.3115Z" fill="#fefefe" fill-opacity="0" fill-rule="nonzero" opacity="1" stroke="none" vectornator:layerName="path"/>
<path d="M182.353 11.2475C278.511 1.13961 364.686 63.5096 385.519 157.902C404.818 245.342 355.259 337.432 271.569 369.646C176.932 406.074 73.6319 363.337 32.3067 270.661C-9.89812 176.011 37.1796 61.2971 133.632 23.5519C149.239 17.4447 165.279 13.2877 182.353 11.2475M215.557 222.56C216.348 222.357 217.138 221.98 217.93 221.978C235.078 221.942 252.227 221.858 269.372 222.09C270.989 222.112 273.293 223.814 274.055 225.345C277.163 231.594 279.711 238.119 282.667 244.448C283.374 245.959 284.812 248.189 285.999 248.244C293.551 248.59 301.128 248.42 309.359 248.42C308.387 246.095 307.867 244.722 307.25 243.395C287.963 201.9 268.696 160.396 249.28 118.962C248.376 117.03 246.159 114.499 244.519 114.473C242.916 114.448 240.634 116.98 239.734 118.898C220.289 160.318 200.993 201.809 181.685 243.295C181.013 244.738 180.519 246.264 179.662 248.473C186.753 248.473 193.19 248.269 199.605 248.555C203.076 248.711 204.651 247.249 205.876 244.265C208.782 237.186 211.959 230.218 215.557 222.56M204.183 115.343C201.034 122.5 198.059 129.743 194.607 136.75C193.791 138.407 191.387 140.314 189.685 140.341C172.873 140.606 156.053 140.588 139.24 140.358C137.625 140.336 135.314 138.707 134.564 137.206C131.37 130.813 128.717 124.151 125.683 117.674C125.048 116.317 123.674 114.361 122.577 114.318C115.048 114.023 107.502 114.163 99.4458 114.163C100.108 116.078 100.384 117.185 100.857 118.201C120.566 160.605 140.273 203.009 160.103 245.356C160.731 246.698 162.877 248.465 163.899 248.23C165.605 247.837 167.639 246.294 168.386 244.698C188.156 202.507 207.781 160.248 227.409 117.991C227.914 116.902 228.164 115.694 228.471 114.734C220.252 114.734 212.493 114.734 204.183 115.343" fill="#0943ae" fill-rule="nonzero" opacity="1" stroke="none" vectornator:layerName="path"/>
<path d="M215.292 222.883C211.959 230.218 208.782 237.186 205.876 244.265C204.651 247.249 203.076 248.711 199.605 248.556C193.19 248.269 186.753 248.474 179.662 248.474C180.519 246.264 181.013 244.738 181.685 243.295C200.993 201.809 220.289 160.318 239.734 118.898C240.634 116.98 242.916 114.448 244.518 114.473C246.159 114.499 248.376 117.03 249.28 118.962C268.696 160.396 287.963 201.9 307.25 243.395C307.867 244.722 308.387 246.095 309.359 248.42C301.128 248.42 293.551 248.59 285.999 248.244C284.812 248.189 283.374 245.959 282.667 244.448C279.711 238.119 277.163 231.594 274.055 225.345C273.293 223.814 270.989 222.112 269.372 222.09C252.227 221.858 235.078 221.942 217.93 221.978C217.138 221.98 216.348 222.357 215.292 222.883M224.845 200.995C225.988 201.701 227.115 202.987 228.276 203.018C235.43 203.208 242.59 203.114 249.748 203.114C254.313 203.115 258.877 203.114 264.343 203.114C257.51 187.679 251.116 173.234 244.086 157.351C237.32 172.619 231.214 186.397 224.845 200.995Z" fill="#f9fafc" fill-rule="nonzero" opacity="1" stroke="none" vectornator:layerName="path"/>
<path d="M204.458 115.039C212.493 114.734 220.252 114.734 228.471 114.734C228.164 115.694 227.914 116.902 227.409 117.991C207.781 160.248 188.156 202.507 168.386 244.698C167.639 246.294 165.605 247.836 163.899 248.23C162.877 248.465 160.731 246.698 160.103 245.356C140.273 203.009 120.566 160.605 100.857 118.201C100.384 117.185 100.108 116.078 99.4458 114.163C107.502 114.163 115.048 114.023 122.577 114.318C123.674 114.361 125.048 116.317 125.683 117.674C128.717 124.151 131.37 130.813 134.564 137.206C135.314 138.707 137.625 140.336 139.24 140.358C156.053 140.588 172.873 140.606 189.685 140.341C191.387 140.314 193.791 138.407 194.607 136.75C198.059 129.743 201.034 122.5 204.458 115.039M150.636 173.934C155.073 183.982 159.51 194.03 164.503 205.337C171.576 189.284 178.005 174.693 184.65 159.608C170.806 159.608 157.987 159.608 144.393 159.608C146.516 164.535 148.396 168.898 150.636 173.934Z" fill="url(#RadialGradient)" fill-rule="nonzero" opacity="1" stroke="none" vectornator:layerName="path"/>
<path d="M320.688 280.082C320.387 280.07 320.27 279.871 320.086 279.334C320.303 279.296 320.588 279.596 320.688 280.082Z" fill="#c5cddb" fill-rule="nonzero" opacity="1" stroke="none" vectornator:layerName="path"/>
<path d="M224.976 200.585C231.214 186.397 237.32 172.619 244.086 157.351C251.116 173.234 257.51 187.679 264.343 203.114C258.877 203.114 254.313 203.115 249.748 203.114C242.59 203.114 235.43 203.208 228.276 203.018C227.115 202.987 225.988 201.701 224.976 200.585Z" fill="#1048b1" fill-rule="nonzero" opacity="1" stroke="none" vectornator:layerName="path"/>
<path d="M150.456 173.598C148.396 168.898 146.516 164.535 144.393 159.608C157.987 159.608 170.806 159.608 184.65 159.608C178.005 174.693 171.576 189.284 164.503 205.337C159.51 194.03 155.073 183.982 150.456 173.598Z" fill="#144ab0" fill-rule="nonzero" opacity="1" stroke="none" vectornator:layerName="path"/>
<g fill="url(#RadialGradient_2)" opacity="1" stroke="#0049b8" stroke-linecap="butt" stroke-linejoin="miter" stroke-width="0" vectornator:layerName="tspan">
<path d="M137.686 261.861L126.218 295.889L130.589 295.889L133.926 285.784L146.992 285.784L150.423 295.889L155.17 295.889L143.326 261.861L137.686 261.861ZM145.911 282.071L134.96 282.071L140.412 265.809L140.459 265.809L145.911 282.071Z"/>
<path d="M173.453 271.261C173.03 271.214 172.842 271.214 172.56 271.214C169.176 271.214 166.638 272.342 164.523 275.209L164.194 271.731L160.622 271.731L160.622 295.889L164.899 295.889L164.899 278.311C166.873 276.478 170.445 275.256 173.453 275.679L173.453 271.261Z"/>
<path d="M190.467 291.753C189.433 292.317 187.694 292.928 186.237 292.928C183.323 292.928 182.759 291.518 182.759 288.98L182.759 275.162L189.433 275.162L189.433 271.731L182.759 271.731L182.759 264.07L178.482 264.728L178.482 271.731L174.769 271.731L174.769 275.162L178.482 275.162L178.482 289.544C178.482 294.385 180.785 296.453 185.297 296.453C187.553 296.453 190.044 295.654 191.219 294.855L190.467 291.753Z"/>
<path d="M200.807 263.976C200.807 262.002 199.679 260.921 197.752 260.921C195.825 260.921 194.744 262.002 194.744 263.976C194.744 265.95 195.825 267.078 197.752 267.078C199.679 267.078 200.807 265.95 200.807 263.976ZM199.82 271.731L195.543 271.731L195.543 295.889L199.82 295.889L199.82 271.731Z"/>
<path d="M212.04 295.889L212.04 275.162L218.761 275.162L218.761 271.731L212.04 271.731L212.04 267.689C212.04 264.305 213.591 263.412 215.8 263.412C216.928 263.412 218.244 263.694 219.184 264.023L219.372 260.733C218.573 260.357 216.928 259.934 214.954 259.934C210.348 259.934 207.763 262.519 207.763 267.83L207.763 271.731L204.191 271.731L204.191 275.162L207.763 275.162L207.763 295.889L212.04 295.889Z"/>
<path d="M238.689 279.533C238.689 273.517 236.01 271.214 230.041 271.214C224.448 271.214 221.534 273.329 220.782 277.841L224.542 278.546C225.059 275.867 226.328 274.551 229.665 274.551C233.613 274.551 234.459 276.431 234.459 279.486L234.459 281.836C233.801 281.789 233.096 281.742 232.344 281.742C225.529 281.742 219.842 283.528 219.842 289.967C219.842 292.317 220.876 296.453 226.986 296.453C230.37 296.453 232.861 295.372 234.741 293.492C234.976 295.043 236.057 296.359 238.454 296.359C239.629 296.359 240.851 296.077 241.791 295.607L241.603 292.928C240.992 293.116 240.569 293.21 240.146 293.21C238.924 293.21 238.689 292.646 238.689 291.33L238.689 279.533ZM234.506 290.39C233.19 291.8 230.793 293.116 228.302 293.116C225.012 293.116 224.26 291.33 224.26 289.262C224.26 285.126 228.725 284.797 232.062 284.797C232.955 284.797 233.848 284.844 234.506 284.938L234.506 290.39Z"/>
<path d="M255.985 296.453C260.826 296.453 265.103 294.103 265.902 288.51L262.142 287.711C261.531 291.283 259.416 292.881 256.126 292.881C252.272 292.881 249.358 290.719 249.358 283.528C249.358 276.666 252.789 274.786 256.267 274.786C259.651 274.786 261.296 276.619 261.672 280.191L265.761 279.627C265.432 274.034 261.86 271.214 256.455 271.214C249.217 271.214 244.893 275.632 244.893 284.045C244.893 291.283 247.995 296.453 255.985 296.453Z"/>
<path d="M284.42 291.753C283.386 292.317 281.647 292.928 280.19 292.928C277.276 292.928 276.712 291.518 276.712 288.98L276.712 275.162L283.386 275.162L283.386 271.731L276.712 271.731L276.712 264.07L272.435 264.728L272.435 271.731L268.722 271.731L268.722 275.162L272.435 275.162L272.435 289.544C272.435 294.385 274.738 296.453 279.25 296.453C281.506 296.453 283.997 295.654 285.172 294.855L284.42 291.753Z"/>
</g>
<g fill="url(#RadialGradient_3)" opacity="1" stroke="#0049b8" stroke-linecap="butt" stroke-linejoin="miter" stroke-width="0" vectornator:layerName="tspan">
<path d="M129.867 303.923L118.887 336.503L123.072 336.503L126.267 326.828L138.777 326.828L142.062 336.503L146.607 336.503L135.267 303.923L129.867 303.923ZM137.742 323.273L127.257 323.273L132.477 307.703L132.522 307.703L137.742 323.273Z"/>
<path d="M171.087 320.798C171.087 315.578 168.927 312.878 163.977 312.878C160.782 312.878 157.902 314.318 155.652 316.118L155.427 313.373L151.827 313.373L151.827 336.503L155.922 336.503L155.922 319.268C157.137 318.188 160.017 316.478 162.672 316.478C165.822 316.478 166.992 318.233 166.992 321.428L166.992 336.503L171.087 336.503L171.087 320.798Z"/>
<path d="M194.937 320.843C194.937 315.083 192.372 312.878 186.657 312.878C181.302 312.878 178.512 314.903 177.792 319.223L181.392 319.898C181.887 317.333 183.102 316.073 186.297 316.073C190.077 316.073 190.887 317.873 190.887 320.798L190.887 323.048C190.257 323.003 189.582 322.958 188.862 322.958C182.337 322.958 176.892 324.668 176.892 330.833C176.892 333.083 177.882 337.043 183.732 337.043C186.972 337.043 189.357 336.008 191.157 334.208C191.382 335.693 192.417 336.953 194.712 336.953C195.837 336.953 197.007 336.683 197.907 336.233L197.727 333.668C197.142 333.848 196.737 333.938 196.332 333.938C195.162 333.938 194.937 333.398 194.937 332.138L194.937 320.843ZM190.932 331.238C189.672 332.588 187.377 333.848 184.992 333.848C181.842 333.848 181.122 332.138 181.122 330.158C181.122 326.198 185.397 325.883 188.592 325.883C189.447 325.883 190.302 325.928 190.932 326.018L190.932 331.238Z"/>
<path d="M206.637 302.528L202.542 302.528L202.542 336.503L206.637 336.503L206.637 302.528Z"/>
<path d="M219.057 336.773L217.977 339.608C216.942 342.353 215.502 343.208 213.837 343.208C212.622 343.208 211.002 342.803 210.147 342.488L209.652 345.683C210.552 346.088 212.397 346.538 214.107 346.538C217.752 346.538 219.867 344.783 221.712 339.878L231.702 313.373L227.517 313.373L221.172 331.733L221.127 331.733L215.007 313.373L210.462 313.373L219.057 336.773Z"/>
<path d="M250.917 316.343L250.917 313.373L233.502 313.373L233.502 316.658L246.282 316.658L233.322 333.713L233.322 336.503L251.457 336.503L251.457 333.218L237.957 333.218L250.917 316.343Z"/>
<path d="M264.867 337.043C269.502 337.043 273.102 334.838 274.047 330.338L270.447 329.528C269.817 332.138 268.287 333.623 265.002 333.623C261.312 333.623 258.702 331.778 258.522 325.883L274.092 325.883C274.227 324.803 274.272 323.768 274.272 322.868C274.272 317.153 271.572 312.878 265.092 312.878C259.152 312.878 254.202 316.523 254.202 324.983C254.202 331.328 256.677 337.043 264.867 337.043ZM258.567 322.643C258.792 318.053 261.762 316.208 264.822 316.208C268.467 316.208 270.042 318.503 270.042 322.643L258.567 322.643Z"/>
<path d="M292.497 312.923C292.092 312.878 291.912 312.878 291.642 312.878C288.402 312.878 285.972 313.958 283.947 316.703L283.632 313.373L280.212 313.373L280.212 336.503L284.307 336.503L284.307 319.673C286.197 317.918 289.617 316.748 292.497 317.153L292.497 312.923Z"/>
</g>
<g fill="url(#RadialGradient_4)" opacity="1" stroke="none">
<path d="M82.8079 72.828C88.5199 72.828 89.9479 76.245 90.5089 79.764L94.8949 79.254C94.1299 71.349 89.2339 68.85 82.7569 68.85C75.6169 68.85 70.3129 72.726 70.3129 79.05C70.3129 86.649 76.2289 88.23 81.7369 89.76C86.2759 91.035 90.4069 92.259 90.4069 96.849C90.4069 101.745 86.1739 103.071 82.1959 103.071C75.8719 103.071 74.0359 99.654 73.1689 95.727L68.6809 96.39C69.6499 103.989 74.4439 107.049 82.1449 107.049C88.9789 107.049 95.2009 103.989 95.2009 96.186C95.2009 89.046 89.3359 87.312 83.9299 85.731C79.2889 84.354 75.1069 83.079 75.1069 78.591C75.1069 75.327 77.1469 72.828 82.8079 72.828Z"/>
<path d="M116.417 107.049C127.688 107.049 133.451 99.246 133.451 87.261C133.451 77.01 128.351 68.85 117.182 68.85C105.911 68.85 99.8419 77.01 99.8419 87.975C99.8419 99.042 104.993 107.049 116.417 107.049ZM116.672 102.918C109.532 102.918 104.738 97.92 104.738 87.924C104.738 78.081 109.889 72.981 117.029 72.981C124.067 72.981 128.657 77.979 128.657 87.72C128.657 98.175 123.659 102.918 116.672 102.918Z"/>
<path d="M145.589 90.474L161.195 90.474L161.195 86.394L145.589 86.394L145.589 73.593L162.47 73.593L162.47 69.513L140.897 69.513L140.897 106.437L145.589 106.437L145.589 90.474Z"/>
<path d="M180.422 106.437L180.422 73.593L191.489 73.593L191.489 69.513L164.561 69.513L164.561 73.593L175.73 73.593L175.73 106.437L180.422 106.437Z"/>
<path d="M228.821 106.437L236.624 69.513L231.932 69.513L225.863 101.337L225.812 101.337L217.652 69.513L212.45 69.513L204.29 100.929L204.239 100.929L197.915 69.513L193.019 69.513L201.077 106.437L206.891 106.437L214.949 76.092L215 76.092L222.854 106.437L228.821 106.437Z"/>
<path d="M250.7 69.513L238.256 106.437L242.999 106.437L246.62 95.472L260.798 95.472L264.521 106.437L269.672 106.437L256.82 69.513L250.7 69.513ZM259.625 91.443L247.742 91.443L253.658 73.797L253.709 73.797L259.625 91.443Z"/>
<path d="M293.795 89.862C298.079 88.383 300.935 85.119 300.935 79.56C300.935 74.511 298.181 69.513 289.001 69.513L276.353 69.513L276.353 106.437L280.994 106.437L280.994 91.086L289.307 91.086L297.773 106.437L302.873 106.437L293.795 89.862ZM280.994 87.159L280.994 73.491L287.42 73.491C292.724 73.491 296.09 74.817 296.09 79.815C296.09 85.527 292.724 87.159 287.879 87.159L280.994 87.159Z"/>
<path d="M313.226 89.862L329.087 89.862L329.087 85.782L313.226 85.782L313.226 73.593L330.107 73.593L330.107 69.513L308.534 69.513L308.534 106.437L330.77 106.437L330.77 102.357L313.226 102.357L313.226 89.862Z"/>
</g>
</g>
</svg>
