<?xml version="1.0" encoding="UTF-8" standalone="no"?>
<svg
   version="1.1"
   width="1000"
   height="1000"
   viewBox="0 0 1000 1000"
   xml:space="preserve"
   id="svg4527"
   sodipodi:docname="pull-request.svg"
   inkscape:version="1.2.1 (9c6d41e, 2022-07-14)"
   xmlns:inkscape="http://www.inkscape.org/namespaces/inkscape"
   xmlns:sodipodi="http://sodipodi.sourceforge.net/DTD/sodipodi-0.dtd"
   xmlns="http://www.w3.org/2000/svg"
   xmlns:svg="http://www.w3.org/2000/svg"><sodipodi:namedview
   id="namedview4529"
   pagecolor="#ffffff"
   bordercolor="#000000"
   borderopacity="0.25"
   inkscape:showpageshadow="2"
   inkscape:pageopacity="0.0"
   inkscape:pagecheckerboard="0"
   inkscape:deskcolor="#d1d1d1"
   showgrid="false"
   inkscape:zoom="0.236"
   inkscape:cx="500"
   inkscape:cy="533.89831"
   inkscape:window-width="1309"
   inkscape:window-height="736"
   inkscape:window-x="0"
   inkscape:window-y="38"
   inkscape:window-maximized="0"
   inkscape:current-layer="svg4527" />
<desc
   id="desc4512">Created with Fabric.js 3.5.0</desc>
<defs
   id="defs4514">
</defs>
<rect
   x="0"
   y="0"
   width="100%"
   height="100%"
   fill="#b2e061"
   id="rect4516"
   style="fill:#71aa9f;fill-opacity:1" />
<g
   transform="matrix(1.6085 0 0 1.7217 500.0064 500.0087)"
   id="960901">
<g
   style=""
   vector-effect="non-scaling-stroke"
   id="g4524">
		<g
   transform="matrix(1 0 0 1 -160 0)"
   id="path4185">
<path
   style="stroke: none; stroke-width: 10; stroke-dasharray: none; stroke-linecap: butt; stroke-dashoffset: 0; stroke-linejoin: miter; stroke-miterlimit: 4; is-custom-font: none; font-file-url: none; fill: rgb(255,255,255); fill-rule: nonzero; opacity: 1;"
   transform=" translate(-96, -224)"
   d="M 96 16 C 51.817212 16 15.999998 51.81722 16 96 C 15.999999 128.80167 35.750253 156.97729 64 169.32422 L 64 278.67578 C 35.750259 291.02271 15.999999 319.19833 16 352 C 15.999998 396.18279 51.817224 432 96 432 C 140.18279 432 176 396.18279 176 352 C 176 319.19833 156.24975 291.02271 128 278.67578 L 128 169.32422 C 156.24975 156.97729 176 128.80167 176 96 C 176 51.81722 140.18279 16 96 16 z M 96 64 C 113.67312 64 128 78.32687 128 96 C 128 113.67311 113.67312 128 96 128 C 78.326885 128 64 113.67311 64 96 C 64 78.32687 78.326885 64 96 64 z M 96 320 C 113.67312 320 128 334.32687 128 352 C 128 369.67311 113.67312 384 96 384 C 78.326885 384 64 369.67311 64 352 C 64 334.32687 78.326885 320 96 320 z"
   stroke-linecap="round"
   id="path4518" />
</g>
		<g
   transform="matrix(1 0 0 1 88 -8)"
   id="path4181">
<path
   style="stroke: none; stroke-width: 10; stroke-dasharray: none; stroke-linecap: butt; stroke-dashoffset: 0; stroke-linejoin: miter; stroke-miterlimit: 4; is-custom-font: none; font-file-url: none; fill: rgb(255,255,255); fill-rule: nonzero; opacity: 1;"
   transform=" translate(-344, -216)"
   d="M 288 0 L 192 96 L 288 192 L 352 192 L 288 128 L 368 128 C 376.86401 128 384 135.13599 384 144 L 384 192 L 384 256 L 384 278.67578 C 355.75026 291.02271 336 319.1983 336 352 C 336 396.1828 371.81721 432 416 432 C 460.18279 432 496 396.1828 496 352 C 496 319.1983 476.24974 291.02271 448 278.67578 L 448 256 L 448 192 L 448 128 C 448 92.54399 419.45601 64 384 64 L 288 64 L 352 0 L 288 0 z M 416 320 C 433.67312 320 448 334.32687 448 352 C 448 369.67311 433.67312 384 416 384 C 398.32688 384 384 369.67311 384 352 C 384 334.32687 398.32688 320 416 320 z"
   stroke-linecap="round"
   id="path4521" />
</g>
</g>
</g>
</svg>
