<?xml version="1.0" encoding="UTF-8" standalone="no"?>
<svg
   width="800px"
   height="800px"
   viewBox="0 0 24 24"
   version="1.1"
   id="svg9"
   sodipodi:docname="cue.svg"
   inkscape:version="1.1 (c68e22c387, 2021-05-23)"
   xmlns:inkscape="http://www.inkscape.org/namespaces/inkscape"
   xmlns:sodipodi="http://sodipodi.sourceforge.net/DTD/sodipodi-0.dtd"
   xmlns="http://www.w3.org/2000/svg"
   xmlns:svg="http://www.w3.org/2000/svg"
   xmlns:rdf="http://www.w3.org/1999/02/22-rdf-syntax-ns#"
   xmlns:cc="http://creativecommons.org/ns#"
   xmlns:dc="http://purl.org/dc/elements/1.1/">
  <defs
     id="defs13" />
  <sodipodi:namedview
     id="namedview11"
     pagecolor="#ffffff"
     bordercolor="#666666"
     borderopacity="1.0"
     inkscape:pageshadow="2"
     inkscape:pageopacity="0.0"
     inkscape:pagecheckerboard="0"
     showgrid="false"
     inkscape:zoom="1.09125"
     inkscape:cx="400.45819"
     inkscape:cy="400"
     inkscape:window-width="1271"
     inkscape:window-height="1081"
     inkscape:window-x="760"
     inkscape:window-y="96"
     inkscape:window-maximized="0"
     inkscape:current-layer="svg9" />
  <!-- Uploaded to: SVG Repo, www.svgrepo.com, Generator: SVG Repo Mixer Tools -->
  <title
     id="title2">ic_fluent_warning_24_filled</title>
  <desc
     id="desc4">Created with Sketch.</desc>
  <g
     id="ic_fluent_warning_24_filled"
     fill="#212121"
     fill-rule="nonzero"
     style="stroke:none;stroke-width:1;fill:#000000;fill-opacity:1">
    <path
       d="m 10.908492,2.7821638 c 1.039771,-0.5759131 2.337803,-0.2412705 2.975633,0.7402397 l 0.0828,0.137827 7.758956,14.0082625 c 0.184798,0.33364 0.281751,0.708781 0.281751,1.090182 0,1.190864 -0.925161,2.165645 -2.095951,2.244809 l -0.154049,0.0052 H 4.2418779 c -0.3813106,0 -0.7563661,-0.09691 -1.0899498,-0.281623 C 2.1120888,20.151262 1.7070482,18.873445 2.200603,17.812035 L 2.2735005,17.668725 10.030297,3.6604627 C 10.234825,3.291099 10.539153,2.9867352 10.908492,2.7821638 Z m 1.091956,13.2196212 c -0.551546,0 -0.998663,0.447117 -0.998663,0.998663 0,0.551546 0.447117,0.998662 0.998663,0.998662 0.551546,0 0.998662,-0.447116 0.998662,-0.998662 0,-0.551546 -0.447116,-0.998663 -0.998662,-0.998663 z m -0.0022,-8.0037241 C 11.485452,7.9982457 11.06292,8.384438 11.005333,8.8817974 l -0.0067,0.1166236 0.0018,5.000879 0.0068,0.116619 c 0.05794,0.497318 0.480754,0.883206 0.99359,0.883021 0.512836,-1.84e-4 0.935368,-0.386377 0.992954,-0.883736 l 0.0067,-0.116624 -0.0018,-5.000879 -0.0068,-0.1166187 C 12.933934,8.3837645 12.511123,7.9978764 11.998288,7.9980609 Z"
       id="🎨-Color"
       style="fill:#000000;fill-opacity:1" />
  </g>
  <metadata
     id="metadata830">
    <rdf:RDF>
      <cc:Work
         rdf:about="">
        <dc:title>ic_fluent_warning_24_filled</dc:title>
      </cc:Work>
    </rdf:RDF>
  </metadata>
</svg>
